<svg width="201" height="78" viewBox="0 0 201 78" fill="none" xmlns="http://www.w3.org/2000/svg">
<rect width="201" height="77.9627" rx="15.6238" fill="url(#paint0_linear_1_1242)"/>
<rect x="0.781189" y="0.781189" width="199.438" height="76.4003" rx="15.6238" fill="#000124"/>
<path d="M32.2209 20.7754V39.3109H28.302V24.4952H28.1934L23.9487 27.156V23.6806L28.5373 20.7754H32.2209ZM43.396 39.5643C42.1169 39.5643 40.9765 39.329 39.9749 38.8584C38.9794 38.3878 38.189 37.7391 37.6037 36.9125C37.0184 36.0859 36.7137 35.1386 36.6896 34.0707H40.4908C40.5331 34.7887 40.8347 35.3709 41.3959 35.8174C41.957 36.2639 42.6237 36.4871 43.396 36.4871C44.0115 36.4871 44.5545 36.3514 45.0251 36.0799C45.5018 35.8023 45.8729 35.4192 46.1384 34.9305C46.4099 34.4357 46.5456 33.8685 46.5456 33.229C46.5456 32.5773 46.4069 32.0041 46.1293 31.5094C45.8578 31.0146 45.4807 30.6284 44.998 30.3509C44.5153 30.0733 43.9632 29.9315 43.3417 29.9255C42.7987 29.9255 42.2708 30.0371 41.7579 30.2604C41.2511 30.4836 40.8559 30.7883 40.5723 31.1745L37.0878 30.55L37.9657 20.7754H49.297V23.9793H41.1968L40.7171 28.6222H40.8257C41.1515 28.1637 41.6433 27.7836 42.3009 27.4819C42.9586 27.1802 43.6947 27.0293 44.5093 27.0293C45.6255 27.0293 46.621 27.2918 47.4959 27.8167C48.3708 28.3417 49.0617 29.0627 49.5685 29.9798C50.0753 30.8909 50.3257 31.9408 50.3197 33.1294C50.3257 34.3784 50.0361 35.4886 49.4508 36.46C48.8716 37.4254 48.0601 38.1856 47.0163 38.7407C45.9785 39.2898 44.7717 39.5643 43.396 39.5643ZM60.3205 39.7182C58.7638 39.7122 57.4244 39.329 56.3021 38.5688C55.1859 37.8085 54.3261 36.7074 53.7227 35.2653C53.1254 33.8233 52.8297 32.0886 52.8357 30.0613C52.8357 28.04 53.1344 26.3174 53.7317 24.8934C54.3351 23.4695 55.1949 22.3864 56.3112 21.6443C57.4334 20.8961 58.7699 20.522 60.3205 20.522C61.8712 20.522 63.2046 20.8961 64.3209 21.6443C65.4431 22.3924 66.306 23.4785 66.9093 24.9025C67.5127 26.3204 67.8114 28.04 67.8053 30.0613C67.8053 32.0946 67.5036 33.8323 66.9003 35.2744C66.3029 36.7164 65.4462 37.8176 64.3299 38.5778C63.2137 39.3381 61.8772 39.7182 60.3205 39.7182ZM60.3205 36.469C61.3825 36.469 62.2302 35.9351 62.8637 34.8671C63.4973 33.7991 63.811 32.1972 63.805 30.0613C63.805 28.6554 63.6602 27.4849 63.3706 26.5497C63.087 25.6144 62.6827 24.9115 62.1578 24.4409C61.6389 23.9703 61.0265 23.7349 60.3205 23.7349C59.2646 23.7349 58.4199 24.2629 57.7864 25.3188C57.1528 26.3747 56.8331 27.9555 56.827 30.0613C56.827 31.4852 56.9688 32.6739 57.2524 33.6272C57.542 34.5745 57.9493 35.2864 58.4742 35.7631C58.9992 36.2337 59.6146 36.469 60.3205 36.469ZM76.1386 36.4871V23.6716H79.3787V36.4871H76.1386ZM71.3509 31.6994V28.4593H84.1664V31.6994H71.3509Z" fill="white"/>
<path d="M26.6292 58.4373C25.9901 58.4373 25.4258 58.2759 24.9365 57.953C24.4471 57.6267 24.0643 57.1673 23.788 56.5748C23.5117 55.9789 23.3735 55.2748 23.3735 54.4626C23.3735 53.657 23.5117 52.9579 23.788 52.3653C24.0643 51.7728 24.4488 51.3151 24.9415 50.9922C25.4341 50.6693 26.0034 50.5078 26.6492 50.5078C27.1485 50.5078 27.543 50.591 27.8326 50.7575C28.1256 50.9206 28.3486 51.107 28.5017 51.3167C28.6582 51.5231 28.7797 51.6929 28.8663 51.8261H28.9661V48.051H30.1446V58.2775H29.0061V57.0991H28.8663C28.7797 57.2389 28.6565 57.4153 28.4968 57.6284C28.337 57.8381 28.1089 58.0262 27.8127 58.1926C27.5164 58.3558 27.1219 58.4373 26.6292 58.4373ZM26.789 57.3787C27.2617 57.3787 27.6612 57.2555 27.9874 57.0092C28.3137 56.7595 28.5617 56.415 28.7314 55.9756C28.9012 55.5328 28.9861 55.0218 28.9861 54.4426C28.9861 53.87 28.9029 53.369 28.7364 52.9396C28.57 52.5068 28.3237 52.1706 27.9974 51.9309C27.6712 51.6879 27.2684 51.5664 26.789 51.5664C26.2897 51.5664 25.8736 51.6946 25.5407 51.9509C25.2111 52.2039 24.9631 52.5484 24.7966 52.9845C24.6335 53.4173 24.552 53.9033 24.552 54.4426C24.552 54.9885 24.6352 55.4846 24.8016 55.9306C24.9714 56.3734 25.2211 56.7262 25.5507 56.9892C25.8835 57.2489 26.2963 57.3787 26.789 57.3787ZM35.6823 58.4373C34.9432 58.4373 34.3057 58.2742 33.7698 57.948C33.2372 57.6184 32.826 57.159 32.5364 56.5698C32.2501 55.9772 32.107 55.2881 32.107 54.5025C32.107 53.7169 32.2501 53.0245 32.5364 52.4253C32.826 51.8227 33.2288 51.3533 33.7448 51.0171C34.2641 50.6776 34.87 50.5078 35.5624 50.5078C35.9619 50.5078 36.3564 50.5744 36.7458 50.7075C37.1353 50.8407 37.4899 51.0571 37.8094 51.3567C38.129 51.653 38.3837 52.0458 38.5734 52.5351C38.7632 53.0245 38.8581 53.627 38.8581 54.3427V54.8421H32.9459V53.8234H37.6596C37.6596 53.3907 37.5731 53.0045 37.4 52.6649C37.2302 52.3254 36.9872 52.0574 36.6709 51.861C36.358 51.6646 35.9885 51.5664 35.5624 51.5664C35.093 51.5664 34.6869 51.6829 34.344 51.9159C34.0045 52.1456 33.7432 52.4452 33.5601 52.8147C33.377 53.1843 33.2854 53.5804 33.2854 54.0032V54.6823C33.2854 55.2615 33.3853 55.7525 33.585 56.1553C33.7881 56.5548 34.0694 56.8594 34.4289 57.0691C34.7884 57.2755 35.2062 57.3787 35.6823 57.3787C35.9918 57.3787 36.2715 57.3354 36.5211 57.2489C36.7741 57.159 36.9922 57.0258 37.1753 56.8494C37.3584 56.6697 37.4999 56.4466 37.5997 56.1803L38.7382 56.4999C38.6184 56.886 38.417 57.2256 38.134 57.5185C37.8511 57.8081 37.5015 58.0345 37.0854 58.1976C36.6693 58.3574 36.2016 58.4373 35.6823 58.4373ZM43.5469 58.4373C42.9077 58.4373 42.3434 58.2759 41.8541 57.953C41.3647 57.6267 40.9819 57.1673 40.7056 56.5748C40.4293 55.9789 40.2912 55.2748 40.2912 54.4626C40.2912 53.657 40.4293 52.9579 40.7056 52.3653C40.9819 51.7728 41.3664 51.3151 41.8591 50.9922C42.3518 50.6693 42.921 50.5078 43.5668 50.5078C44.0662 50.5078 44.4606 50.591 44.7503 50.7575C45.0432 50.9206 45.2663 51.107 45.4194 51.3167C45.5758 51.5231 45.6973 51.6929 45.7839 51.8261H45.8838V48.051H47.0622V58.2775H45.9237V57.0991H45.7839C45.6973 57.2389 45.5742 57.4153 45.4144 57.6284C45.2546 57.8381 45.0266 58.0262 44.7303 58.1926C44.434 58.3558 44.0395 58.4373 43.5469 58.4373ZM43.7066 57.3787C44.1794 57.3787 44.5788 57.2555 44.9051 57.0092C45.2313 56.7595 45.4793 56.415 45.6491 55.9756C45.8189 55.5328 45.9037 55.0218 45.9037 54.4426C45.9037 53.87 45.8205 53.369 45.6541 52.9396C45.4876 52.5068 45.2413 52.1706 44.915 51.9309C44.5888 51.6879 44.186 51.5664 43.7066 51.5664C43.2073 51.5664 42.7912 51.6946 42.4583 51.9509C42.1287 52.2039 41.8807 52.5484 41.7143 52.9845C41.5512 53.4173 41.4696 53.9033 41.4696 54.4426C41.4696 54.9885 41.5528 55.4846 41.7193 55.9306C41.889 56.3734 42.1387 56.7262 42.4683 56.9892C42.8012 57.2489 43.214 57.3787 43.7066 57.3787ZM49.3841 58.2775V50.6077H50.5626V58.2775H49.3841ZM49.9833 49.3294C49.7537 49.3294 49.5556 49.2511 49.3891 49.0947C49.226 48.9382 49.1445 48.7501 49.1445 48.5304C49.1445 48.3107 49.226 48.1226 49.3891 47.9662C49.5556 47.8097 49.7537 47.7315 49.9833 47.7315C50.213 47.7315 50.4094 47.8097 50.5726 47.9662C50.739 48.1226 50.8222 48.3107 50.8222 48.5304C50.8222 48.7501 50.739 48.9382 50.5726 49.0947C50.4094 49.2511 50.213 49.3294 49.9833 49.3294ZM55.8369 58.4373C55.1178 58.4373 54.4986 58.2675 53.9793 57.928C53.46 57.5884 53.0605 57.1207 52.7809 56.5248C52.5013 55.929 52.3615 55.2482 52.3615 54.4825C52.3615 53.7036 52.5046 53.0161 52.7909 52.4203C53.0805 51.8211 53.4833 51.3533 53.9993 51.0171C54.5186 50.6776 55.1245 50.5078 55.8169 50.5078C56.3562 50.5078 56.8422 50.6077 57.275 50.8074C57.7077 51.0071 58.0622 51.2868 58.3385 51.6463C58.6149 52.0058 58.7863 52.4253 58.8529 52.9046H57.6744C57.5845 52.5551 57.3848 52.2455 57.0752 51.9759C56.769 51.7029 56.3562 51.5664 55.8369 51.5664C55.3775 51.5664 54.9747 51.6862 54.6285 51.9259C54.2856 52.1623 54.0176 52.4968 53.8245 52.9296C53.6348 53.359 53.5399 53.8634 53.5399 54.4426C53.5399 55.0351 53.6331 55.5511 53.8195 55.9906C54.0093 56.43 54.2756 56.7712 54.6185 57.0142C54.9647 57.2572 55.3708 57.3787 55.8369 57.3787C56.1431 57.3787 56.4211 57.3255 56.6708 57.2189C56.9204 57.1124 57.1318 56.9593 57.3049 56.7595C57.478 56.5598 57.6012 56.3201 57.6744 56.0405H58.8529C58.7863 56.4932 58.6215 56.901 58.3585 57.2639C58.0989 57.6234 57.7543 57.9097 57.3249 58.1227C56.8988 58.3325 56.4028 58.4373 55.8369 58.4373ZM62.8326 58.4573C62.3466 58.4573 61.9055 58.3657 61.5094 58.1827C61.1132 57.9962 60.7986 57.7283 60.5656 57.3787C60.3326 57.0258 60.2161 56.5997 60.2161 56.1004C60.2161 55.661 60.3026 55.3048 60.4757 55.0318C60.6488 54.7555 60.8802 54.5391 61.1698 54.3827C61.4594 54.2262 61.779 54.1097 62.1285 54.0331C62.4814 53.9532 62.8359 53.89 63.1921 53.8434C63.6582 53.7835 64.036 53.7385 64.3256 53.7086C64.6186 53.6753 64.8316 53.6204 64.9648 53.5438C65.1013 53.4672 65.1695 53.3341 65.1695 53.1443V53.1044C65.1695 52.6117 65.0347 52.2289 64.7651 51.9559C64.4987 51.6829 64.0943 51.5464 63.5517 51.5464C62.9891 51.5464 62.548 51.6696 62.2284 51.9159C61.9088 52.1623 61.6841 52.4253 61.5543 52.7049L60.4358 52.3054C60.6355 51.8394 60.9018 51.4765 61.2347 51.2169C61.5709 50.9539 61.9371 50.7708 62.3333 50.6676C62.7327 50.5611 63.1256 50.5078 63.5117 50.5078C63.758 50.5078 64.041 50.5378 64.3606 50.5977C64.6835 50.6543 64.9947 50.7724 65.2944 50.9522C65.5973 51.132 65.8486 51.4033 66.0484 51.7661C66.2481 52.129 66.348 52.615 66.348 53.2242V58.2775H65.1695V57.2389H65.1096C65.0297 57.4053 64.8965 57.5834 64.7101 57.7732C64.5237 57.9629 64.2757 58.1244 63.9661 58.2576C63.6565 58.3907 63.2787 58.4573 62.8326 58.4573ZM63.0124 57.3987C63.4784 57.3987 63.8712 57.3071 64.1908 57.1241C64.5137 56.941 64.7567 56.7046 64.9198 56.415C65.0863 56.1254 65.1695 55.8208 65.1695 55.5012V54.4226C65.1196 54.4825 65.0097 54.5375 64.84 54.5874C64.6735 54.634 64.4804 54.6756 64.2607 54.7122C64.0443 54.7455 63.833 54.7755 63.6266 54.8021C63.4235 54.8254 63.2587 54.8454 63.1322 54.862C62.8259 54.902 62.5397 54.9669 62.2733 55.0568C62.0104 55.1433 61.7973 55.2748 61.6342 55.4513C61.4744 55.6244 61.3945 55.8607 61.3945 56.1603C61.3945 56.5698 61.546 56.8794 61.8489 57.0891C62.1552 57.2955 62.543 57.3987 63.0124 57.3987ZM71.8345 50.6077V51.6063H67.8597V50.6077H71.8345ZM69.0182 48.7701H70.1966V56.0804C70.1966 56.4133 70.2449 56.663 70.3414 56.8294C70.4413 56.9926 70.5678 57.1024 70.7209 57.159C70.8774 57.2123 71.0422 57.2389 71.2153 57.2389C71.3451 57.2389 71.4516 57.2322 71.5349 57.2189C71.6181 57.2023 71.6847 57.189 71.7346 57.179L71.9743 58.2376C71.8944 58.2675 71.7829 58.2975 71.6397 58.3275C71.4966 58.3608 71.3151 58.3774 71.0954 58.3774C70.7625 58.3774 70.4363 58.3058 70.1167 58.1627C69.8005 58.0195 69.5375 57.8015 69.3278 57.5085C69.1214 57.2156 69.0182 56.8461 69.0182 56.4V48.7701ZM76.7405 58.4373C76.0014 58.4373 75.364 58.2742 74.828 57.948C74.2954 57.6184 73.8842 57.159 73.5946 56.5698C73.3083 55.9772 73.1652 55.2881 73.1652 54.5025C73.1652 53.7169 73.3083 53.0245 73.5946 52.4253C73.8842 51.8227 74.287 51.3533 74.803 51.0171C75.3223 50.6776 75.9282 50.5078 76.6206 50.5078C77.0201 50.5078 77.4146 50.5744 77.8041 50.7075C78.1935 50.8407 78.5481 51.0571 78.8677 51.3567C79.1872 51.653 79.4419 52.0458 79.6316 52.5351C79.8214 53.0245 79.9163 53.627 79.9163 54.3427V54.8421H74.0041V53.8234H78.7179C78.7179 53.3907 78.6313 53.0045 78.4582 52.6649C78.2884 52.3254 78.0454 52.0574 77.7292 51.861C77.4162 51.6646 77.0467 51.5664 76.6206 51.5664C76.1512 51.5664 75.7451 51.6829 75.4022 51.9159C75.0627 52.1456 74.8014 52.4452 74.6183 52.8147C74.4352 53.1843 74.3436 53.5804 74.3436 54.0032V54.6823C74.3436 55.2615 74.4435 55.7525 74.6432 56.1553C74.8463 56.5548 75.1276 56.8594 75.4871 57.0691C75.8467 57.2755 76.2644 57.3787 76.7405 57.3787C77.0501 57.3787 77.3297 57.3354 77.5794 57.2489C77.8324 57.159 78.0504 57.0258 78.2335 56.8494C78.4166 56.6697 78.5581 56.4466 78.6579 56.1803L79.7964 56.4999C79.6766 56.886 79.4752 57.2256 79.1922 57.5185C78.9093 57.8081 78.5597 58.0345 78.1436 58.1976C77.7275 58.3574 77.2598 58.4373 76.7405 58.4373ZM84.6051 58.4373C83.9659 58.4373 83.4017 58.2759 82.9123 57.953C82.423 57.6267 82.0401 57.1673 81.7638 56.5748C81.4875 55.9789 81.3494 55.2748 81.3494 54.4626C81.3494 53.657 81.4875 52.9579 81.7638 52.3653C82.0401 51.7728 82.4246 51.3151 82.9173 50.9922C83.41 50.6693 83.9792 50.5078 84.625 50.5078C85.1244 50.5078 85.5189 50.591 85.8085 50.7575C86.1014 50.9206 86.3245 51.107 86.4776 51.3167C86.6341 51.5231 86.7556 51.6929 86.8421 51.8261H86.942V48.051H88.1204V58.2775H86.9819V57.0991H86.8421C86.7556 57.2389 86.6324 57.4153 86.4726 57.6284C86.3128 57.8381 86.0848 58.0262 85.7885 58.1926C85.4922 58.3558 85.0978 58.4373 84.6051 58.4373ZM84.7649 57.3787C85.2376 57.3787 85.637 57.2555 85.9633 57.0092C86.2895 56.7595 86.5375 56.415 86.7073 55.9756C86.8771 55.5328 86.962 55.0218 86.962 54.4426C86.962 53.87 86.8787 53.369 86.7123 52.9396C86.5458 52.5068 86.2995 52.1706 85.9733 51.9309C85.647 51.6879 85.2442 51.5664 84.7649 51.5664C84.2655 51.5664 83.8494 51.6946 83.5165 51.9509C83.1869 52.2039 82.9389 52.5484 82.7725 52.9845C82.6094 53.4173 82.5278 53.9033 82.5278 54.4426C82.5278 54.9885 82.611 55.4846 82.7775 55.9306C82.9473 56.3734 83.1969 56.7262 83.5265 56.9892C83.8594 57.2489 84.2722 57.3787 84.7649 57.3787ZM97.6129 58.4373C96.8738 58.4373 96.2364 58.2742 95.7004 57.948C95.1678 57.6184 94.7566 57.159 94.467 56.5698C94.1807 55.9772 94.0376 55.2881 94.0376 54.5025C94.0376 53.7169 94.1807 53.0245 94.467 52.4253C94.7566 51.8227 95.1594 51.3533 95.6754 51.0171C96.1947 50.6776 96.8006 50.5078 97.493 50.5078C97.8925 50.5078 98.287 50.5744 98.6765 50.7075C99.066 50.8407 99.4205 51.0571 99.7401 51.3567C100.06 51.653 100.314 52.0458 100.504 52.5351C100.694 53.0245 100.789 53.627 100.789 54.3427V54.8421H94.8765V53.8234H99.5903C99.5903 53.3907 99.5037 53.0045 99.3306 52.6649C99.1608 52.3254 98.9178 52.0574 98.6016 51.861C98.2886 51.6646 97.9191 51.5664 97.493 51.5664C97.0237 51.5664 96.6175 51.6829 96.2746 51.9159C95.9351 52.1456 95.6738 52.4452 95.4907 52.8147C95.3076 53.1843 95.216 53.5804 95.216 54.0032V54.6823C95.216 55.2615 95.3159 55.7525 95.5156 56.1553C95.7187 56.5548 96 56.8594 96.3595 57.0691C96.7191 57.2755 97.1368 57.3787 97.6129 57.3787C97.9225 57.3787 98.2021 57.3354 98.4518 57.2489C98.7048 57.159 98.9228 57.0258 99.1059 56.8494C99.289 56.6697 99.4305 56.4466 99.5303 56.1803L100.669 56.4999C100.549 56.886 100.348 57.2256 100.065 57.5185C99.7817 57.8081 99.4321 58.0345 99.016 58.1976C98.5999 58.3574 98.1322 58.4373 97.6129 58.4373ZM102.581 58.2775V50.6077H103.72V51.8061H103.82C103.979 51.3966 104.237 51.0787 104.594 50.8523C104.95 50.6226 105.378 50.5078 105.877 50.5078C106.383 50.5078 106.804 50.6226 107.14 50.8523C107.48 51.0787 107.744 51.3966 107.934 51.8061H108.014C108.211 51.4099 108.505 51.0954 108.898 50.8623C109.291 50.626 109.762 50.5078 110.311 50.5078C110.997 50.5078 111.558 50.7225 111.994 51.1519C112.43 51.5781 112.648 52.2422 112.648 53.1443V58.2775H111.47V53.1443C111.47 52.5784 111.315 52.1739 111.005 51.9309C110.696 51.6879 110.331 51.5664 109.912 51.5664C109.372 51.5664 108.955 51.7295 108.658 52.0558C108.362 52.3787 108.214 52.7881 108.214 53.2841V58.2775H107.015V53.0245C107.015 52.5884 106.874 52.2372 106.591 51.9709C106.308 51.7012 105.944 51.5664 105.497 51.5664C105.191 51.5664 104.905 51.648 104.639 51.8111C104.376 51.9742 104.163 52.2006 103.999 52.4902C103.84 52.7765 103.76 53.1077 103.76 53.4839V58.2775H102.581ZM114.803 61.1537V50.6077H115.941V51.8261H116.081C116.168 51.6929 116.287 51.5231 116.44 51.3167C116.597 51.107 116.82 50.9206 117.11 50.7575C117.403 50.591 117.799 50.5078 118.298 50.5078C118.944 50.5078 119.513 50.6693 120.006 50.9922C120.498 51.3151 120.883 51.7728 121.159 52.3653C121.436 52.9579 121.574 53.657 121.574 54.4626C121.574 55.2748 121.436 55.9789 121.159 56.5748C120.883 57.1673 120.5 57.6267 120.011 57.953C119.521 58.2759 118.957 58.4373 118.318 58.4373C117.825 58.4373 117.431 58.3558 117.135 58.1926C116.838 58.0262 116.61 57.8381 116.45 57.6284C116.291 57.4153 116.168 57.2389 116.081 57.0991H115.981V61.1537H114.803ZM115.961 54.4426C115.961 55.0218 116.046 55.5328 116.216 55.9756C116.386 56.415 116.634 56.7595 116.96 57.0092C117.286 57.2555 117.685 57.3787 118.158 57.3787C118.651 57.3787 119.062 57.2489 119.392 56.9892C119.724 56.7262 119.974 56.3734 120.141 55.9306C120.31 55.4846 120.395 54.9885 120.395 54.4426C120.395 53.9033 120.312 53.4173 120.146 52.9845C119.982 52.5484 119.734 52.2039 119.402 51.9509C119.072 51.6946 118.658 51.5664 118.158 51.5664C117.679 51.5664 117.276 51.6879 116.95 51.9309C116.624 52.1706 116.377 52.5068 116.211 52.9396C116.044 53.369 115.961 53.87 115.961 54.4426ZM124.55 48.051V58.2775H123.371V48.051H124.55ZM129.824 58.4373C129.132 58.4373 128.524 58.2725 128.001 57.943C127.482 57.6134 127.076 57.1523 126.783 56.5598C126.493 55.9672 126.349 55.2748 126.349 54.4825C126.349 53.6836 126.493 52.9862 126.783 52.3903C127.076 51.7944 127.482 51.3317 128.001 51.0021C128.524 50.6726 129.132 50.5078 129.824 50.5078C130.516 50.5078 131.122 50.6726 131.642 51.0021C132.164 51.3317 132.57 51.7944 132.86 52.3903C133.153 52.9862 133.299 53.6836 133.299 54.4825C133.299 55.2748 133.153 55.9672 132.86 56.5598C132.57 57.1523 132.164 57.6134 131.642 57.943C131.122 58.2725 130.516 58.4373 129.824 58.4373ZM129.824 57.3787C130.35 57.3787 130.783 57.2439 131.122 56.9742C131.462 56.7046 131.713 56.3501 131.876 55.9107C132.039 55.4712 132.121 54.9952 132.121 54.4825C132.121 53.9699 132.039 53.4922 131.876 53.0494C131.713 52.6067 131.462 52.2488 131.122 51.9759C130.783 51.7029 130.35 51.5664 129.824 51.5664C129.298 51.5664 128.865 51.7029 128.526 51.9759C128.186 52.2488 127.935 52.6067 127.772 53.0494C127.609 53.4922 127.527 53.9699 127.527 54.4825C127.527 54.9952 127.609 55.4712 127.772 55.9107C127.935 56.3501 128.186 56.7046 128.526 56.9742C128.865 57.2439 129.298 57.3787 129.824 57.3787ZM135.583 61.1537C135.383 61.1537 135.205 61.1371 135.048 61.1038C134.892 61.0738 134.784 61.0439 134.724 61.0139L135.023 59.9753C135.31 60.0485 135.563 60.0752 135.782 60.0552C136.002 60.0352 136.197 59.937 136.367 59.7606C136.54 59.5875 136.698 59.3062 136.841 58.9167L137.061 58.3175L134.224 50.6077H135.503L137.62 56.7196H137.7L139.817 50.6077H141.095L137.84 59.396C137.693 59.7922 137.512 60.1201 137.295 60.3797C137.079 60.6427 136.828 60.8375 136.541 60.964C136.258 61.0905 135.939 61.1537 135.583 61.1537ZM145.592 58.4373C144.853 58.4373 144.215 58.2742 143.679 57.948C143.147 57.6184 142.736 57.159 142.446 56.5698C142.16 55.9772 142.017 55.2881 142.017 54.5025C142.017 53.7169 142.16 53.0245 142.446 52.4253C142.736 51.8227 143.139 51.3533 143.654 51.0171C144.174 50.6776 144.78 50.5078 145.472 50.5078C145.872 50.5078 146.266 50.5744 146.656 50.7075C147.045 50.8407 147.4 51.0571 147.719 51.3567C148.039 51.653 148.293 52.0458 148.483 52.5351C148.673 53.0245 148.768 53.627 148.768 54.3427V54.8421H142.856V53.8234H147.569C147.569 53.3907 147.483 53.0045 147.31 52.6649C147.14 52.3254 146.897 52.0574 146.581 51.861C146.268 51.6646 145.898 51.5664 145.472 51.5664C145.003 51.5664 144.597 51.6829 144.254 51.9159C143.914 52.1456 143.653 52.4452 143.47 52.8147C143.287 53.1843 143.195 53.5804 143.195 54.0032V54.6823C143.195 55.2615 143.295 55.7525 143.495 56.1553C143.698 56.5548 143.979 56.8594 144.339 57.0691C144.698 57.2755 145.116 57.3787 145.592 57.3787C145.902 57.3787 146.181 57.3354 146.431 57.2489C146.684 57.159 146.902 57.0258 147.085 56.8494C147.268 56.6697 147.41 56.4466 147.509 56.1803L148.648 56.4999C148.528 56.886 148.327 57.2256 148.044 57.5185C147.761 57.8081 147.411 58.0345 146.995 58.1976C146.579 58.3574 146.111 58.4373 145.592 58.4373ZM153.776 58.4373C153.037 58.4373 152.4 58.2742 151.864 57.948C151.331 57.6184 150.92 57.159 150.63 56.5698C150.344 55.9772 150.201 55.2881 150.201 54.5025C150.201 53.7169 150.344 53.0245 150.63 52.4253C150.92 51.8227 151.323 51.3533 151.839 51.0171C152.358 50.6776 152.964 50.5078 153.656 50.5078C154.056 50.5078 154.45 50.5744 154.84 50.7075C155.229 50.8407 155.584 51.0571 155.903 51.3567C156.223 51.653 156.478 52.0458 156.667 52.5351C156.857 53.0245 156.952 53.627 156.952 54.3427V54.8421H151.04V53.8234H155.753C155.753 53.3907 155.667 53.0045 155.494 52.6649C155.324 52.3254 155.081 52.0574 154.765 51.861C154.452 51.6646 154.082 51.5664 153.656 51.5664C153.187 51.5664 152.781 51.6829 152.438 51.9159C152.098 52.1456 151.837 52.4452 151.654 52.8147C151.471 53.1843 151.379 53.5804 151.379 54.0032V54.6823C151.379 55.2615 151.479 55.7525 151.679 56.1553C151.882 56.5548 152.163 56.8594 152.523 57.0691C152.882 57.2755 153.3 57.3787 153.776 57.3787C154.086 57.3787 154.365 57.3354 154.615 57.2489C154.868 57.159 155.086 57.0258 155.269 56.8494C155.452 56.6697 155.594 56.4466 155.694 56.1803L156.832 56.4999C156.712 56.886 156.511 57.2256 156.228 57.5185C155.945 57.8081 155.595 58.0345 155.179 58.1976C154.763 58.3574 154.295 58.4373 153.776 58.4373ZM164.177 52.3254L163.119 52.625C163.052 52.4486 162.954 52.2771 162.824 52.1107C162.698 51.9409 162.525 51.8011 162.305 51.6912C162.085 51.5814 161.804 51.5265 161.461 51.5265C160.992 51.5265 160.6 51.6346 160.288 51.851C159.978 52.0641 159.823 52.3354 159.823 52.6649C159.823 52.9579 159.93 53.1893 160.143 53.359C160.356 53.5288 160.689 53.6703 161.141 53.7835L162.28 54.0631C162.966 54.2295 163.477 54.4842 163.813 54.8271C164.149 55.1666 164.317 55.6044 164.317 56.1404C164.317 56.5798 164.191 56.9726 163.938 57.3188C163.688 57.665 163.338 57.938 162.889 58.1377C162.44 58.3374 161.917 58.4373 161.321 58.4373C160.539 58.4373 159.891 58.2675 159.379 57.928C158.866 57.5884 158.541 57.0924 158.405 56.44L159.524 56.1603C159.63 56.5731 159.831 56.8827 160.128 57.0891C160.427 57.2955 160.818 57.3987 161.301 57.3987C161.85 57.3987 162.287 57.2822 162.609 57.0492C162.936 56.8128 163.099 56.5298 163.099 56.2003C163.099 55.934 163.006 55.7109 162.819 55.5312C162.633 55.3481 162.346 55.2116 161.96 55.1217L160.682 54.8221C159.98 54.6556 159.464 54.3977 159.134 54.0481C158.808 53.6953 158.645 53.2542 158.645 52.7249C158.645 52.2921 158.766 51.9093 159.009 51.5764C159.256 51.2435 159.59 50.9822 160.013 50.7924C160.439 50.6027 160.922 50.5078 161.461 50.5078C162.22 50.5078 162.816 50.6742 163.249 51.0071C163.685 51.34 163.994 51.7795 164.177 52.3254Z" fill="#D6D6D6"/>
<defs>
<linearGradient id="paint0_linear_1_1242" x1="-3.63576" y1="20.6194" x2="204.636" y2="57.3433" gradientUnits="userSpaceOnUse">
<stop stop-color="#BD1E7B"/>
<stop offset="1" stop-color="#3259E4"/>
</linearGradient>
</defs>
</svg>
