<svg width="146" height="76" viewBox="0 0 146 76" fill="none" xmlns="http://www.w3.org/2000/svg">
<rect width="146" height="75.2577" rx="15.0515" fill="url(#paint0_linear_1_1250)"/>
<rect x="0.752563" y="0.752563" width="144.495" height="73.6021" rx="15.0515" fill="#000124"/>
<path d="M31.399 36.5437C30.2676 36.5437 29.259 36.3356 28.3731 35.9193C27.4926 35.5031 26.7935 34.9294 26.2758 34.1983C25.7582 33.4671 25.4887 32.6293 25.4673 31.6847H28.8294C28.8668 32.3198 29.1336 32.8347 29.6299 33.2297C30.1262 33.6246 30.7159 33.822 31.399 33.822C31.9434 33.822 32.4237 33.7019 32.8399 33.4618C33.2615 33.2163 33.5897 32.8774 33.8245 32.4452C34.0647 32.0076 34.1848 31.5059 34.1848 30.9402C34.1848 30.3639 34.062 29.8569 33.8165 29.4193C33.5764 28.9817 33.2428 28.6401 32.8159 28.3946C32.389 28.1492 31.9007 28.0237 31.351 28.0184C30.8707 28.0184 30.4037 28.1171 29.9501 28.3146C29.5018 28.512 29.1523 28.7816 28.9015 29.1231L25.8195 28.5708L26.596 19.9254H36.6183V22.7591H29.4538L29.0295 26.8657H29.1256C29.4138 26.4601 29.8487 26.1239 30.4304 25.8571C31.0121 25.5902 31.6632 25.4568 32.3836 25.4568C33.3709 25.4568 34.2515 25.689 35.0253 26.1532C35.7991 26.6175 36.4101 27.2553 36.8584 28.0664C37.3067 28.8723 37.5282 29.8009 37.5228 30.8522C37.5282 31.9569 37.272 32.9388 36.7544 33.798C36.242 34.6519 35.5243 35.3243 34.601 35.8153C33.6831 36.3009 32.6158 36.5437 31.399 36.5437ZM44.8394 33.822V22.487H47.7052V33.822H44.8394ZM40.6048 29.5874V26.7216H51.9398V29.5874H40.6048Z" fill="white"/>
<path d="M27.2959 55.9298C26.8277 55.9298 26.4027 55.8416 26.0211 55.6653C25.6395 55.4857 25.3364 55.2275 25.1119 54.8908C24.8874 54.5508 24.7752 54.1403 24.7752 53.6593C24.7752 53.2359 24.8586 52.8928 25.0253 52.6298C25.1921 52.3636 25.415 52.1552 25.694 52.0045C25.973 51.8537 26.2809 51.7415 26.6176 51.6677C26.9575 51.5908 27.2991 51.5298 27.6422 51.4849C28.0912 51.4272 28.4552 51.3839 28.7342 51.355C29.0164 51.323 29.2217 51.2701 29.35 51.1963C29.4815 51.1225 29.5472 50.9942 29.5472 50.8114V50.773C29.5472 50.2983 29.4173 49.9295 29.1575 49.6665C28.901 49.4036 28.5113 49.2721 27.9886 49.2721C27.4466 49.2721 27.0217 49.3907 26.7138 49.6281C26.4059 49.8654 26.1895 50.1187 26.0644 50.3881L24.9868 50.0033C25.1793 49.5543 25.4358 49.2047 25.7565 48.9546C26.0804 48.7012 26.4332 48.5249 26.8148 48.4254C27.1997 48.3228 27.5781 48.2715 27.9501 48.2715C28.1874 48.2715 28.46 48.3004 28.7679 48.3581C29.079 48.4126 29.3788 48.5265 29.6675 48.6996C29.9593 48.8728 30.2014 49.1342 30.3938 49.4837C30.5863 49.8333 30.6825 50.3015 30.6825 50.8884V55.7567H29.5472V54.7561H29.4895C29.4125 54.9164 29.2842 55.088 29.1046 55.2708C28.925 55.4536 28.6861 55.6091 28.3879 55.7374C28.0896 55.8657 27.7256 55.9298 27.2959 55.9298ZM27.4691 54.91C27.918 54.91 28.2965 54.8218 28.6043 54.6454C28.9154 54.469 29.1495 54.2413 29.3067 53.9623C29.467 53.6833 29.5472 53.3899 29.5472 53.082V52.0429C29.4991 52.1007 29.3933 52.1536 29.2297 52.2017C29.0694 52.2466 28.8833 52.2867 28.6717 52.3219C28.4632 52.354 28.2596 52.3829 28.0607 52.4085C27.8651 52.431 27.7064 52.4502 27.5845 52.4663C27.2895 52.5047 27.0137 52.5673 26.7571 52.6539C26.5037 52.7373 26.2985 52.8639 26.1414 53.0339C25.9874 53.2007 25.9105 53.4284 25.9105 53.717C25.9105 54.1115 26.0564 54.4097 26.3482 54.6118C26.6433 54.8106 27.0169 54.91 27.4691 54.91ZM35.7564 55.9106C35.0636 55.9106 34.4671 55.747 33.9669 55.4199C33.4666 55.0928 33.0817 54.6422 32.8123 54.0682C32.5429 53.4941 32.4082 52.8383 32.4082 52.1007C32.4082 51.3502 32.5461 50.688 32.8219 50.1139C33.101 49.5367 33.489 49.0861 33.9861 48.7622C34.4864 48.4351 35.0701 48.2715 35.7371 48.2715C36.2567 48.2715 36.7249 48.3677 37.1418 48.5601C37.5587 48.7526 37.9002 49.0219 38.1664 49.3683C38.4326 49.7147 38.5978 50.1187 38.6619 50.5805H37.5266C37.44 50.2438 37.2476 49.9456 36.9494 49.6858C36.6543 49.4228 36.2567 49.2913 35.7564 49.2913C35.3138 49.2913 34.9257 49.4068 34.5922 49.6377C34.2619 49.8654 34.0037 50.1877 33.8177 50.6046C33.6349 51.0183 33.5435 51.5042 33.5435 52.0622C33.5435 52.633 33.6333 53.1301 33.8129 53.5534C33.9957 53.9768 34.2523 54.3055 34.5826 54.5396C34.9161 54.7737 35.3074 54.8908 35.7564 54.8908C36.0514 54.8908 36.3192 54.8394 36.5597 54.7368C36.8002 54.6342 37.0039 54.4867 37.1706 54.2943C37.3374 54.1018 37.4561 53.8709 37.5266 53.6015H38.6619C38.5978 54.0377 38.439 54.4306 38.1857 54.7801C37.9355 55.1265 37.6036 55.4023 37.1899 55.6075C36.7794 55.8096 36.3016 55.9106 35.7564 55.9106ZM43.535 48.3677V49.3298H39.7058V48.3677H43.535ZM40.8218 46.5974H41.9571V53.64C41.9571 53.9607 42.0036 54.2013 42.0966 54.3616C42.1928 54.5187 42.3147 54.6246 42.4622 54.6791C42.6129 54.7304 42.7717 54.7561 42.9384 54.7561C43.0635 54.7561 43.1661 54.7497 43.2463 54.7368C43.3265 54.7208 43.3906 54.708 43.4387 54.6983L43.6696 55.7182C43.5927 55.747 43.4852 55.7759 43.3473 55.8048C43.2094 55.8368 43.0347 55.8529 42.823 55.8529C42.5023 55.8529 42.188 55.7839 41.8801 55.646C41.5755 55.5081 41.3221 55.2981 41.1201 55.0158C40.9212 54.7336 40.8218 54.3776 40.8218 53.9479V46.5974ZM45.2427 55.7567V48.3677H46.378V55.7567H45.2427ZM45.8199 47.1362C45.5987 47.1362 45.4078 47.0609 45.2475 46.9101C45.0904 46.7594 45.0118 46.5782 45.0118 46.3665C45.0118 46.1549 45.0904 45.9737 45.2475 45.823C45.4078 45.6722 45.5987 45.5969 45.8199 45.5969C46.0412 45.5969 46.2304 45.6722 46.3876 45.823C46.5479 45.9737 46.6281 46.1549 46.6281 46.3665C46.6281 46.5782 46.5479 46.7594 46.3876 46.9101C46.2304 47.0609 46.0412 47.1362 45.8199 47.1362ZM54.4993 48.3677L51.7669 55.7567H50.6124L47.88 48.3677H49.1115L51.1512 54.2558H51.2282L53.2678 48.3677H54.4993ZM58.8312 55.9106C58.1192 55.9106 57.5051 55.7534 56.9887 55.4392C56.4756 55.1217 56.0796 54.6791 55.8005 54.1115C55.5247 53.5406 55.3868 52.8768 55.3868 52.1199C55.3868 51.3631 55.5247 50.696 55.8005 50.1187C56.0796 49.5383 56.4676 49.0861 56.9647 48.7622C57.465 48.4351 58.0487 48.2715 58.7157 48.2715C59.1006 48.2715 59.4806 48.3356 59.8558 48.4639C60.231 48.5922 60.5726 48.8007 60.8804 49.0893C61.1883 49.3747 61.4337 49.7531 61.6165 50.2246C61.7992 50.696 61.8906 51.2765 61.8906 51.966V52.447H56.195V51.4657H60.7361C60.7361 51.0488 60.6527 50.6768 60.486 50.3496C60.3224 50.0225 60.0883 49.7644 59.7836 49.5751C59.4822 49.3859 59.1262 49.2913 58.7157 49.2913C58.2635 49.2913 57.8723 49.4036 57.5419 49.6281C57.2148 49.8493 56.9631 50.138 56.7867 50.494C56.6103 50.8499 56.5221 51.2316 56.5221 51.6389V52.2931C56.5221 52.8511 56.6183 53.3241 56.8108 53.7122C57.0064 54.097 57.2774 54.3905 57.6237 54.5925C57.9701 54.7913 58.3726 54.8908 58.8312 54.8908C59.1294 54.8908 59.3988 54.8491 59.6393 54.7657C59.8831 54.6791 60.0931 54.5508 60.2695 54.3808C60.4459 54.2077 60.5822 53.9928 60.6784 53.7362L61.7752 54.0441C61.6597 54.4161 61.4657 54.7432 61.1931 55.0255C60.9205 55.3045 60.5838 55.5225 60.1829 55.6797C59.782 55.8336 59.3315 55.9106 58.8312 55.9106ZM67.4275 55.7567V48.3677H68.5243V49.5222H68.6205C68.7745 49.1278 69.023 48.8215 69.3662 48.6034C69.7093 48.3821 70.1214 48.2715 70.6025 48.2715C71.0899 48.2715 71.4956 48.3821 71.8195 48.6034C72.1467 48.8215 72.4016 49.1278 72.5844 49.5222H72.6614C72.8506 49.1406 73.1344 48.8375 73.5128 48.613C73.8913 48.3854 74.3451 48.2715 74.8742 48.2715C75.5349 48.2715 76.0752 48.4784 76.4954 48.8921C76.9155 49.3026 77.1255 49.9424 77.1255 50.8114V55.7567H75.9902V50.8114C75.9902 50.2663 75.8411 49.8766 75.5429 49.6425C75.2446 49.4084 74.8935 49.2913 74.4894 49.2913C73.9698 49.2913 73.5674 49.4485 73.2819 49.7628C72.9965 50.0738 72.8538 50.4683 72.8538 50.9461V55.7567H71.6993V50.696C71.6993 50.2759 71.563 49.9375 71.2904 49.681C71.0178 49.4212 70.6666 49.2913 70.2369 49.2913C69.9418 49.2913 69.666 49.3699 69.4095 49.527C69.1561 49.6842 68.9509 49.9023 68.7937 50.1813C68.6398 50.4571 68.5628 50.7762 68.5628 51.1386V55.7567H67.4275ZM81.3756 55.9298C80.9074 55.9298 80.4825 55.8416 80.1008 55.6653C79.7192 55.4857 79.4161 55.2275 79.1916 54.8908C78.9672 54.5508 78.8549 54.1403 78.8549 53.6593C78.8549 53.2359 78.9383 52.8928 79.1051 52.6298C79.2718 52.3636 79.4947 52.1552 79.7737 52.0045C80.0527 51.8537 80.3606 51.7415 80.6973 51.6677C81.0373 51.5908 81.3788 51.5298 81.722 51.4849C82.171 51.4272 82.5349 51.3839 82.814 51.355C83.0962 51.323 83.3014 51.2701 83.4297 51.1963C83.5612 51.1225 83.6269 50.9942 83.6269 50.8114V50.773C83.6269 50.2983 83.497 49.9295 83.2373 49.6665C82.9807 49.4036 82.5911 49.2721 82.0683 49.2721C81.5263 49.2721 81.1014 49.3907 80.7935 49.6281C80.4857 49.8654 80.2692 50.1187 80.1441 50.3881L79.0666 50.0033C79.259 49.5543 79.5155 49.2047 79.8363 48.9546C80.1602 48.7012 80.5129 48.5249 80.8946 48.4254C81.2794 48.3228 81.6578 48.2715 82.0298 48.2715C82.2672 48.2715 82.5398 48.3004 82.8476 48.3581C83.1587 48.4126 83.4586 48.5265 83.7472 48.6996C84.039 48.8728 84.2812 49.1342 84.4736 49.4837C84.666 49.8333 84.7622 50.3015 84.7622 50.8884V55.7567H83.6269V54.7561H83.5692C83.4922 54.9164 83.364 55.088 83.1844 55.2708C83.0048 55.4536 82.7658 55.6091 82.4676 55.7374C82.1693 55.8657 81.8054 55.9298 81.3756 55.9298ZM81.5488 54.91C81.9978 54.91 82.3762 54.8218 82.6841 54.6454C82.9952 54.469 83.2293 54.2413 83.3864 53.9623C83.5468 53.6833 83.6269 53.3899 83.6269 53.082V52.0429C83.5788 52.1007 83.473 52.1536 83.3094 52.2017C83.1491 52.2466 82.9631 52.2867 82.7514 52.3219C82.543 52.354 82.3393 52.3829 82.1405 52.4085C81.9449 52.431 81.7861 52.4502 81.6642 52.4663C81.3692 52.5047 81.0934 52.5673 80.8368 52.6539C80.5835 52.7373 80.3782 52.8639 80.2211 53.0339C80.0672 53.2007 79.9902 53.4284 79.9902 53.717C79.9902 54.1115 80.1361 54.4097 80.4279 54.6118C80.723 54.8106 81.0966 54.91 81.5488 54.91ZM86.8343 55.7567V48.3677H87.9311V49.4837H88.0081C88.1428 49.1182 88.3865 48.8215 88.7393 48.5938C89.0921 48.3661 89.4897 48.2523 89.9323 48.2523C90.0157 48.2523 90.1199 48.2539 90.245 48.2571C90.3701 48.2603 90.4647 48.2651 90.5288 48.2715V49.426C90.4903 49.4164 90.4021 49.402 90.2642 49.3827C90.1295 49.3603 89.9868 49.3491 89.8361 49.3491C89.4769 49.3491 89.1562 49.4244 88.874 49.5751C88.595 49.7227 88.3737 49.9279 88.2101 50.1909C88.0498 50.4507 87.9696 50.7473 87.9696 51.0808V55.7567H86.8343ZM92.9329 53.0628L92.9136 51.6581H93.1445L96.3772 48.3677H97.7819L94.3375 51.8505H94.2413L92.9329 53.0628ZM91.8745 55.7567V45.9047H93.0098V55.7567H91.8745ZM96.5696 55.7567L93.6833 52.1007L94.4915 51.3117L98.0128 55.7567H96.5696ZM102.037 55.9106C101.325 55.9106 100.711 55.7534 100.194 55.4392C99.6812 55.1217 99.2851 54.6791 99.0061 54.1115C98.7303 53.5406 98.5924 52.8768 98.5924 52.1199C98.5924 51.3631 98.7303 50.696 99.0061 50.1187C99.2851 49.5383 99.6732 49.0861 100.17 48.7622C100.671 48.4351 101.254 48.2715 101.921 48.2715C102.306 48.2715 102.686 48.3356 103.061 48.4639C103.437 48.5922 103.778 48.8007 104.086 49.0893C104.394 49.3747 104.639 49.7531 104.822 50.2246C105.005 50.696 105.096 51.2765 105.096 51.966V52.447H99.4006V51.4657H103.942C103.942 51.0488 103.858 50.6768 103.692 50.3496C103.528 50.0225 103.294 49.7644 102.989 49.5751C102.688 49.3859 102.332 49.2913 101.921 49.2913C101.469 49.2913 101.078 49.4036 100.748 49.6281C100.42 49.8493 100.169 50.138 99.9923 50.494C99.8159 50.8499 99.7277 51.2316 99.7277 51.6389V52.2931C99.7277 52.8511 99.8239 53.3241 100.016 53.7122C100.212 54.097 100.483 54.3905 100.829 54.5925C101.176 54.7913 101.578 54.8908 102.037 54.8908C102.335 54.8908 102.604 54.8491 102.845 54.7657C103.089 54.6791 103.299 54.5508 103.475 54.3808C103.651 54.2077 103.788 53.9928 103.884 53.7362L104.981 54.0441C104.865 54.4161 104.671 54.7432 104.399 55.0255C104.126 55.3045 103.789 55.5225 103.389 55.6797C102.988 55.8336 102.537 55.9106 102.037 55.9106ZM110.037 48.3677V49.3298H106.207V48.3677H110.037ZM107.323 46.5974H108.459V53.64C108.459 53.9607 108.505 54.2013 108.598 54.3616C108.694 54.5187 108.816 54.6246 108.964 54.6791C109.115 54.7304 109.273 54.7561 109.44 54.7561C109.565 54.7561 109.668 54.7497 109.748 54.7368C109.828 54.7208 109.892 54.708 109.94 54.6983L110.171 55.7182C110.094 55.747 109.987 55.7759 109.849 55.8048C109.711 55.8368 109.536 55.8529 109.325 55.8529C109.004 55.8529 108.69 55.7839 108.382 55.646C108.077 55.5081 107.824 55.2981 107.622 55.0158C107.423 54.7336 107.323 54.3776 107.323 53.9479V46.5974ZM116.846 50.0225L115.826 50.3112C115.762 50.1412 115.667 49.976 115.542 49.8157C115.42 49.6521 115.254 49.5174 115.042 49.4116C114.83 49.3058 114.559 49.2528 114.229 49.2528C113.777 49.2528 113.4 49.3571 113.099 49.5655C112.8 49.7708 112.651 50.0321 112.651 50.3496C112.651 50.6319 112.754 50.8547 112.959 51.0183C113.164 51.1819 113.485 51.3182 113.921 51.4272L115.018 51.6966C115.679 51.8569 116.171 52.1023 116.495 52.4326C116.819 52.7597 116.981 53.1814 116.981 53.6978C116.981 54.1211 116.859 54.4995 116.615 54.833C116.374 55.1666 116.038 55.4295 115.605 55.622C115.172 55.8144 114.668 55.9106 114.094 55.9106C113.341 55.9106 112.717 55.747 112.223 55.4199C111.729 55.0928 111.416 54.615 111.285 53.9864L112.362 53.717C112.465 54.1147 112.659 54.4129 112.945 54.6118C113.233 54.8106 113.61 54.91 114.075 54.91C114.604 54.91 115.024 54.7978 115.335 54.5733C115.65 54.3456 115.807 54.073 115.807 53.7555C115.807 53.4989 115.717 53.2841 115.537 53.1109C115.358 52.9345 115.082 52.803 114.71 52.7164L113.479 52.4278C112.802 52.2674 112.305 52.0189 111.987 51.6822C111.673 51.3422 111.516 50.9173 111.516 50.4074C111.516 49.9905 111.633 49.6217 111.867 49.301C112.104 48.9802 112.427 48.7285 112.834 48.5457C113.244 48.3629 113.709 48.2715 114.229 48.2715C114.96 48.2715 115.534 48.4319 115.951 48.7526C116.371 49.0733 116.67 49.4966 116.846 50.0225Z" fill="#D6D6D6"/>
<defs>
<linearGradient id="paint0_linear_1_1250" x1="-2.37921" y1="18.9562" x2="150.656" y2="38.1638" gradientUnits="userSpaceOnUse">
<stop stop-color="#BD1E7B"/>
<stop offset="1" stop-color="#3259E4"/>
</linearGradient>
</defs>
</svg>
