<svg width="216" height="80" viewBox="0 0 216 80" fill="none" xmlns="http://www.w3.org/2000/svg">
<rect width="216" height="79.2529" rx="15.8824" fill="url(#paint0_linear_1_1246)"/>
<rect x="0.794067" y="0.794067" width="214.412" height="77.6647" rx="15.8824" fill="#000124"/>
<path d="M34.3401 21.142V38.4412H30.6826V24.6137H30.5812L26.6196 27.0971V23.8535L30.9022 21.142H34.3401ZM44.7698 38.6777C43.576 38.6777 42.5117 38.4581 41.5769 38.0188C40.6477 37.5796 39.91 36.9742 39.3638 36.2027C38.8176 35.4313 38.5332 34.5472 38.5107 33.5504H42.0584C42.0978 34.2206 42.3793 34.764 42.903 35.1807C43.4267 35.5974 44.049 35.8057 44.7698 35.8057C45.3442 35.8057 45.851 35.679 46.2902 35.4256C46.7351 35.1666 47.0814 34.809 47.3292 34.3529C47.5826 33.8911 47.7093 33.3618 47.7093 32.7649C47.7093 32.1567 47.5798 31.6217 47.3207 31.16C47.0673 30.6982 46.7154 30.3378 46.2649 30.0788C45.8144 29.8198 45.2991 29.6874 44.7191 29.6818C44.2123 29.6818 43.7196 29.786 43.2409 29.9943C42.7679 30.2027 42.399 30.4871 42.1344 30.8475L38.8823 30.2646L39.7017 21.142H50.2771V24.1322H42.7172L42.2695 28.4654H42.3709C42.675 28.0375 43.1339 27.6827 43.7477 27.4011C44.3615 27.1196 45.0485 26.9788 45.8088 26.9788C46.8505 26.9788 47.7797 27.2238 48.5962 27.7137C49.4127 28.2036 50.0575 28.8765 50.5305 29.7325C51.0036 30.5828 51.2373 31.5626 51.2316 32.672C51.2373 33.8376 50.967 34.8738 50.4207 35.7804C49.8801 36.6814 49.1227 37.3909 48.1485 37.909C47.18 38.4215 46.0537 38.6777 44.7698 38.6777ZM58.952 35.8057V23.845H61.976V35.8057H58.952ZM54.4837 31.3374V28.3134H66.4444V31.3374H54.4837Z" fill="white"/>
<path d="M27.2797 61.2061C27.0767 61.2061 26.8956 61.1892 26.7366 61.1553C26.5775 61.1249 26.4676 61.0944 26.4066 61.064L26.7112 60.0081C27.0022 60.0826 27.2594 60.1097 27.4828 60.0894C27.7061 60.0691 27.9041 59.9692 28.0767 59.7899C28.2526 59.6139 28.4134 59.328 28.5589 58.932L28.7822 58.3229L25.899 50.4855H27.1985L29.3507 56.6986H29.432L31.5842 50.4855H32.8837L29.5741 59.4193C29.4252 59.822 29.2408 60.1553 29.0208 60.4193C28.8008 60.6866 28.5453 60.8846 28.2543 61.0132C27.9667 61.1418 27.6418 61.2061 27.2797 61.2061ZM37.4546 58.4447C36.7034 58.4447 36.0553 58.2789 35.5105 57.9473C34.9691 57.6123 34.5511 57.1453 34.2567 56.5463C33.9657 55.9439 33.8202 55.2434 33.8202 54.4448C33.8202 53.6462 33.9657 52.9423 34.2567 52.3332C34.5511 51.7207 34.9606 51.2435 35.4851 50.9017C36.013 50.5566 36.6289 50.384 37.3328 50.384C37.7389 50.384 38.1399 50.4517 38.5358 50.587C38.9318 50.7224 39.2922 50.9423 39.617 51.2469C39.9419 51.5481 40.2008 51.9474 40.3937 52.4448C40.5866 52.9423 40.683 53.5548 40.683 54.2824V54.79H34.673V53.7545H39.4648C39.4648 53.3145 39.3768 52.922 39.2008 52.5768C39.0282 52.2317 38.7812 51.9592 38.4597 51.7596C38.1416 51.5599 37.766 51.4601 37.3328 51.4601C36.8557 51.4601 36.4428 51.5785 36.0943 51.8154C35.7491 52.0489 35.4834 52.3535 35.2973 52.7291C35.1112 53.1047 35.0181 53.5074 35.0181 53.9372V54.6275C35.0181 55.2164 35.1197 55.7155 35.3227 56.125C35.5291 56.5311 35.8151 56.8407 36.1806 57.0539C36.546 57.2637 36.9707 57.3686 37.4546 57.3686C37.7694 57.3686 38.0536 57.3246 38.3074 57.2366C38.5646 57.1453 38.7863 57.0099 38.9724 56.8305C39.1585 56.6478 39.3023 56.4211 39.4038 56.1504L40.5612 56.4752C40.4393 56.8678 40.2346 57.2129 39.947 57.5107C39.6593 57.8051 39.304 58.0353 38.881 58.2011C38.458 58.3635 37.9825 58.4447 37.4546 58.4447ZM44.7997 58.465C44.3056 58.465 43.8572 58.372 43.4545 58.1858C43.0518 57.9963 42.732 57.7239 42.4951 57.3686C42.2583 57.0099 42.1398 56.5767 42.1398 56.0691C42.1398 55.6224 42.2278 55.2604 42.4038 54.9829C42.5797 54.702 42.8149 54.482 43.1093 54.323C43.4038 54.1639 43.7286 54.0455 44.0839 53.9677C44.4427 53.8864 44.803 53.8221 45.1651 53.7748C45.6389 53.7139 46.023 53.6682 46.3174 53.6377C46.6152 53.6039 46.8318 53.548 46.9671 53.4702C47.1059 53.3924 47.1753 53.257 47.1753 53.0641V53.0235C47.1753 52.5227 47.0382 52.1335 46.7641 51.856C46.4934 51.5785 46.0822 51.4398 45.5306 51.4398C44.9587 51.4398 44.5103 51.565 44.1855 51.8154C43.8606 52.0658 43.6322 52.3332 43.5002 52.6174L42.3632 52.2113C42.5662 51.7376 42.8369 51.3687 43.1753 51.1048C43.5171 50.8374 43.8894 50.6513 44.2921 50.5464C44.6981 50.4381 45.0975 50.384 45.49 50.384C45.7404 50.384 46.0281 50.4144 46.3529 50.4753C46.6812 50.5329 46.9976 50.653 47.3022 50.8357C47.6101 51.0185 47.8656 51.2943 48.0686 51.6631C48.2717 52.032 48.3732 52.5261 48.3732 53.1453V58.2823H47.1753V57.2265H47.1143C47.0331 57.3957 46.8978 57.5767 46.7083 57.7696C46.5187 57.9625 46.2666 58.1266 45.9519 58.262C45.6372 58.3973 45.2531 58.465 44.7997 58.465ZM44.9824 57.3889C45.4562 57.3889 45.8555 57.2958 46.1803 57.1097C46.5086 56.9236 46.7556 56.6833 46.9214 56.3889C47.0906 56.0945 47.1753 55.7849 47.1753 55.46V54.3636C47.1245 54.4245 47.0128 54.4803 46.8402 54.5311C46.671 54.5785 46.4748 54.6208 46.2514 54.658C46.0314 54.6918 45.8166 54.7223 45.6068 54.7494C45.4003 54.7731 45.2328 54.7934 45.1042 54.8103C44.7929 54.8509 44.5019 54.9169 44.2311 55.0082C43.9638 55.0962 43.7472 55.2299 43.5814 55.4093C43.419 55.5852 43.3378 55.8255 43.3378 56.13C43.3378 56.5463 43.4917 56.861 43.7997 57.0742C44.111 57.284 44.5053 57.3889 44.9824 57.3889ZM50.5597 58.2823V50.4855H51.717V51.6631H51.7983C51.9404 51.2774 52.1976 50.9643 52.5698 50.7241C52.9421 50.4838 53.3617 50.3637 53.8287 50.3637C53.9167 50.3637 54.0266 50.3654 54.1586 50.3687C54.2906 50.3721 54.3904 50.3772 54.4581 50.384V51.6022C54.4175 51.5921 54.3244 51.5768 54.1789 51.5565C54.0368 51.5329 53.8862 51.521 53.7271 51.521C53.3481 51.521 53.0097 51.6005 52.7119 51.7596C52.4175 51.9152 52.184 52.1318 52.0114 52.4093C51.8422 52.6834 51.7576 52.9964 51.7576 53.3484V58.2823H50.5597ZM61.4008 52.2317L60.3247 52.5362C60.257 52.3569 60.1572 52.1826 60.0252 52.0134C59.8966 51.8408 59.7207 51.6987 59.4973 51.587C59.274 51.4753 58.988 51.4195 58.6395 51.4195C58.1623 51.4195 57.7647 51.5295 57.4466 51.7494C57.1319 51.966 56.9745 52.2418 56.9745 52.5768C56.9745 52.8746 57.0828 53.1098 57.2994 53.2824C57.516 53.455 57.8544 53.5988 58.3146 53.7139L59.4719 53.9981C60.1691 54.1673 60.6885 54.4262 61.0303 54.7747C61.3721 55.1199 61.543 55.5649 61.543 56.1097C61.543 56.5564 61.4144 56.9558 61.1572 57.3077C60.9034 57.6596 60.5481 57.9371 60.0912 58.1402C59.6344 58.3432 59.1031 58.4447 58.4973 58.4447C57.7021 58.4447 57.0439 58.2721 56.5228 57.927C56.0016 57.5818 55.6717 57.0776 55.5329 56.4143L56.67 56.13C56.7783 56.5497 56.983 56.8644 57.2842 57.0742C57.5887 57.284 57.9864 57.3889 58.477 57.3889C59.0354 57.3889 59.4787 57.2705 59.807 57.0336C60.1386 56.7933 60.3044 56.5057 60.3044 56.1707C60.3044 55.8999 60.2097 55.6732 60.0202 55.4905C59.8307 55.3043 59.5396 55.1656 59.1471 55.0742L57.8476 54.7697C57.1336 54.6005 56.6091 54.3382 56.274 53.9829C55.9424 53.6242 55.7766 53.1758 55.7766 52.6377C55.7766 52.1978 55.9001 51.8086 56.1471 51.4702C56.3976 51.1318 56.7377 50.8662 57.1674 50.6733C57.6006 50.4804 58.0913 50.384 58.6395 50.384C59.411 50.384 60.0168 50.5532 60.4567 50.8916C60.9 51.23 61.2147 51.6767 61.4008 52.2317ZM70.5339 58.4447C69.83 58.4447 69.2124 58.2772 68.6811 57.9422C68.1532 57.6072 67.7404 57.1385 67.4426 56.5361C67.1482 55.9338 67.001 55.2299 67.001 54.4245C67.001 53.6123 67.1482 52.9034 67.4426 52.2976C67.7404 51.6919 68.1532 51.2215 68.6811 50.8865C69.2124 50.5515 69.83 50.384 70.5339 50.384C71.2378 50.384 71.8537 50.5515 72.3816 50.8865C72.9129 51.2215 73.3257 51.6919 73.6201 52.2976C73.9179 52.9034 74.0668 53.6123 74.0668 54.4245C74.0668 55.2299 73.9179 55.9338 73.6201 56.5361C73.3257 57.1385 72.9129 57.6072 72.3816 57.9422C71.8537 58.2772 71.2378 58.4447 70.5339 58.4447ZM70.5339 57.3686C71.0686 57.3686 71.5085 57.2315 71.8537 56.9574C72.1988 56.6833 72.4543 56.3229 72.6202 55.8762C72.786 55.4296 72.8689 54.9456 72.8689 54.4245C72.8689 53.9034 72.786 53.4178 72.6202 52.9677C72.4543 52.5176 72.1988 52.1538 71.8537 51.8763C71.5085 51.5988 71.0686 51.4601 70.5339 51.4601C69.9992 51.4601 69.5593 51.5988 69.2141 51.8763C68.869 52.1538 68.6135 52.5176 68.4477 52.9677C68.2818 53.4178 68.1989 53.9034 68.1989 54.4245C68.1989 54.9456 68.2818 55.4296 68.4477 55.8762C68.6135 56.3229 68.869 56.6833 69.2141 56.9574C69.5593 57.2315 69.9992 57.3686 70.5339 57.3686ZM79.3675 50.4855V51.5007H75.1645V50.4855H79.3675ZM76.4234 58.2823V49.4094C76.4234 48.9627 76.5283 48.5904 76.7381 48.2926C76.9479 47.9949 77.2203 47.7715 77.5553 47.6226C77.8903 47.4737 78.244 47.3993 78.6162 47.3993C78.9106 47.3993 79.1509 47.423 79.337 47.4703C79.5231 47.5177 79.6619 47.5617 79.7533 47.6023L79.4081 48.6378C79.3472 48.6175 79.2626 48.5921 79.1543 48.5617C79.0494 48.5312 78.9106 48.516 78.738 48.516C78.3421 48.516 78.0562 48.6158 77.8802 48.8155C77.7076 49.0151 77.6213 49.3079 77.6213 49.6936V58.2823H76.4234ZM88.3356 58.4447C87.5843 58.4447 86.9363 58.2789 86.3914 57.9473C85.85 57.6123 85.4321 57.1453 85.1377 56.5463C84.8466 55.9439 84.7011 55.2434 84.7011 54.4448C84.7011 53.6462 84.8466 52.9423 85.1377 52.3332C85.4321 51.7207 85.8415 51.2435 86.3661 50.9017C86.894 50.5566 87.5099 50.384 88.2137 50.384C88.6198 50.384 89.0208 50.4517 89.4168 50.587C89.8127 50.7224 90.1731 50.9423 90.498 51.2469C90.8228 51.5481 91.0817 51.9474 91.2746 52.4448C91.4675 52.9423 91.5639 53.5548 91.5639 54.2824V54.79H85.5539V53.7545H90.3457C90.3457 53.3145 90.2577 52.922 90.0817 52.5768C89.9091 52.2317 89.6621 51.9592 89.3406 51.7596C89.0225 51.5599 88.6469 51.4601 88.2137 51.4601C87.7366 51.4601 87.3237 51.5785 86.9752 51.8154C86.63 52.0489 86.3644 52.3535 86.1782 52.7291C85.9921 53.1047 85.8991 53.5074 85.8991 53.9372V54.6275C85.8991 55.2164 86.0006 55.7155 86.2036 56.125C86.4101 56.5311 86.696 56.8407 87.0615 57.0539C87.427 57.2637 87.8516 57.3686 88.3356 57.3686C88.6503 57.3686 88.9345 57.3246 89.1883 57.2366C89.4455 57.1453 89.6672 57.0099 89.8533 56.8305C90.0394 56.6478 90.1832 56.4211 90.2848 56.1504L91.4421 56.4752C91.3203 56.8678 91.1155 57.2129 90.8279 57.5107C90.5403 57.8051 90.1849 58.0353 89.7619 58.2011C89.3389 58.3635 88.8635 58.4447 88.3356 58.4447ZM94.0702 50.4855L95.9382 53.6732L97.8062 50.4855H99.1869L96.6691 54.3839L99.1869 58.2823H97.8062L95.9382 55.257L94.0702 58.2823H92.6895L95.1666 54.3839L92.6895 50.4855H94.0702ZM100.896 61.2061V50.4855H102.054V51.724H102.196C102.284 51.5887 102.405 51.4161 102.561 51.2063C102.72 50.9931 102.947 50.8036 103.241 50.6378C103.539 50.4686 103.942 50.384 104.449 50.384C105.106 50.384 105.685 50.5481 106.185 50.8764C106.686 51.2046 107.077 51.6699 107.358 52.2723C107.639 52.8746 107.779 53.5853 107.779 54.4042C107.779 55.2299 107.639 55.9456 107.358 56.5514C107.077 57.1537 106.688 57.6207 106.191 57.9523C105.693 58.2806 105.119 58.4447 104.47 58.4447C103.969 58.4447 103.568 58.3618 103.267 58.196C102.966 58.0268 102.734 57.8356 102.571 57.6224C102.409 57.4058 102.284 57.2265 102.196 57.0843H102.094V61.2061H100.896ZM102.074 54.3839C102.074 54.9727 102.16 55.4922 102.333 55.9422C102.505 56.3889 102.757 56.7392 103.089 56.993C103.421 57.2434 103.827 57.3686 104.307 57.3686C104.808 57.3686 105.226 57.2366 105.561 56.9727C105.899 56.7053 106.153 56.3466 106.322 55.8966C106.495 55.4431 106.581 54.9389 106.581 54.3839C106.581 53.8357 106.497 53.3416 106.328 52.9017C106.162 52.4584 105.91 52.1081 105.571 51.8509C105.236 51.5904 104.815 51.4601 104.307 51.4601C103.82 51.4601 103.411 51.5836 103.079 51.8306C102.747 52.0743 102.497 52.4161 102.328 52.856C102.158 53.2925 102.074 53.8018 102.074 54.3839ZM112.876 58.4447C112.124 58.4447 111.476 58.2789 110.932 57.9473C110.39 57.6123 109.972 57.1453 109.678 56.5463C109.387 55.9439 109.241 55.2434 109.241 54.4448C109.241 53.6462 109.387 52.9423 109.678 52.3332C109.972 51.7207 110.382 51.2435 110.906 50.9017C111.434 50.5566 112.05 50.384 112.754 50.384C113.16 50.384 113.561 50.4517 113.957 50.587C114.353 50.7224 114.713 50.9423 115.038 51.2469C115.363 51.5481 115.622 51.9474 115.815 52.4448C116.008 52.9423 116.104 53.5548 116.104 54.2824V54.79H110.094V53.7545H114.886C114.886 53.3145 114.798 52.922 114.622 52.5768C114.449 52.2317 114.202 51.9592 113.881 51.7596C113.563 51.5599 113.187 51.4601 112.754 51.4601C112.277 51.4601 111.864 51.5785 111.515 51.8154C111.17 52.0489 110.904 52.3535 110.718 52.7291C110.532 53.1047 110.439 53.5074 110.439 53.9372V54.6275C110.439 55.2164 110.541 55.7155 110.744 56.125C110.95 56.5311 111.236 56.8407 111.602 57.0539C111.967 57.2637 112.392 57.3686 112.876 57.3686C113.19 57.3686 113.475 57.3246 113.728 57.2366C113.986 57.1453 114.207 57.0099 114.393 56.8305C114.58 56.6478 114.723 56.4211 114.825 56.1504L115.982 56.4752C115.86 56.8678 115.656 57.2129 115.368 57.5107C115.08 57.8051 114.725 58.0353 114.302 58.2011C113.879 58.3635 113.404 58.4447 112.876 58.4447ZM117.926 58.2823V50.4855H119.084V51.6631H119.165C119.307 51.2774 119.564 50.9643 119.936 50.7241C120.309 50.4838 120.728 50.3637 121.195 50.3637C121.283 50.3637 121.393 50.3654 121.525 50.3687C121.657 50.3721 121.757 50.3772 121.825 50.384V51.6022C121.784 51.5921 121.691 51.5768 121.546 51.5565C121.403 51.5329 121.253 51.521 121.094 51.521C120.715 51.521 120.376 51.6005 120.079 51.7596C119.784 51.9152 119.551 52.1318 119.378 52.4093C119.209 52.6834 119.124 52.9964 119.124 53.3484V58.2823H117.926ZM123.245 58.2823V50.4855H124.443V58.2823H123.245ZM123.854 49.186C123.62 49.186 123.419 49.1065 123.25 48.9475C123.084 48.7884 123.001 48.5972 123.001 48.3739C123.001 48.1505 123.084 47.9593 123.25 47.8003C123.419 47.6412 123.62 47.5617 123.854 47.5617C124.087 47.5617 124.287 47.6412 124.453 47.8003C124.622 47.9593 124.707 48.1505 124.707 48.3739C124.707 48.5972 124.622 48.7884 124.453 48.9475C124.287 49.1065 124.087 49.186 123.854 49.186ZM129.906 58.4447C129.155 58.4447 128.506 58.2789 127.962 57.9473C127.42 57.6123 127.002 57.1453 126.708 56.5463C126.417 55.9439 126.271 55.2434 126.271 54.4448C126.271 53.6462 126.417 52.9423 126.708 52.3332C127.002 51.7207 127.412 51.2435 127.936 50.9017C128.464 50.5566 129.08 50.384 129.784 50.384C130.19 50.384 130.591 50.4517 130.987 50.587C131.383 50.7224 131.743 50.9423 132.068 51.2469C132.393 51.5481 132.652 51.9474 132.845 52.4448C133.038 52.9423 133.134 53.5548 133.134 54.2824V54.79H127.124V53.7545H131.916C131.916 53.3145 131.828 52.922 131.652 52.5768C131.479 52.2317 131.232 51.9592 130.911 51.7596C130.593 51.5599 130.217 51.4601 129.784 51.4601C129.307 51.4601 128.894 51.5785 128.545 51.8154C128.2 52.0489 127.935 52.3535 127.748 52.7291C127.562 53.1047 127.469 53.5074 127.469 53.9372V54.6275C127.469 55.2164 127.571 55.7155 127.774 56.125C127.98 56.5311 128.266 56.8407 128.632 57.0539C128.997 57.2637 129.422 57.3686 129.906 57.3686C130.22 57.3686 130.505 57.3246 130.759 57.2366C131.016 57.1453 131.237 57.0099 131.424 56.8305C131.61 56.6478 131.753 56.4211 131.855 56.1504L133.012 56.4752C132.89 56.8678 132.686 57.2129 132.398 57.5107C132.11 57.8051 131.755 58.0353 131.332 58.2011C130.909 58.3635 130.434 58.4447 129.906 58.4447ZM136.154 53.592V58.2823H134.956V50.4855H136.114V51.7037H136.215C136.398 51.3078 136.676 50.9897 137.048 50.7494C137.42 50.5058 137.901 50.384 138.489 50.384C139.017 50.384 139.479 50.4923 139.875 50.7088C140.271 50.922 140.579 51.2469 140.799 51.6834C141.019 52.1166 141.129 52.6648 141.129 53.3281V58.2823H139.931V53.4093C139.931 52.7968 139.772 52.3196 139.454 51.9778C139.136 51.6327 138.699 51.4601 138.144 51.4601C137.762 51.4601 137.42 51.543 137.119 51.7088C136.821 51.8746 136.586 52.1166 136.413 52.4347C136.241 52.7528 136.154 53.1386 136.154 53.592ZM146.485 58.4447C145.754 58.4447 145.125 58.2721 144.597 57.927C144.069 57.5818 143.663 57.1063 143.379 56.5006C143.095 55.8949 142.952 55.2028 142.952 54.4245C142.952 53.6326 143.098 52.9338 143.389 52.3281C143.683 51.719 144.093 51.2435 144.617 50.9017C145.145 50.5566 145.761 50.384 146.465 50.384C147.013 50.384 147.507 50.4855 147.947 50.6885C148.387 50.8916 148.748 51.1758 149.028 51.5413C149.309 51.9068 149.484 52.3332 149.551 52.8205H148.353C148.262 52.4651 148.059 52.1504 147.744 51.8763C147.433 51.5988 147.013 51.4601 146.485 51.4601C146.018 51.4601 145.609 51.5819 145.257 51.8256C144.908 52.0658 144.636 52.4059 144.44 52.8459C144.247 53.2824 144.15 53.7951 144.15 54.3839C144.15 54.9862 144.245 55.5108 144.435 55.9575C144.628 56.4042 144.898 56.751 145.247 56.9981C145.599 57.2451 146.012 57.3686 146.485 57.3686C146.797 57.3686 147.079 57.3145 147.333 57.2062C147.587 57.0979 147.802 56.9422 147.978 56.7392C148.154 56.5361 148.279 56.2925 148.353 56.0082H149.551C149.484 56.4685 149.316 56.883 149.049 57.2519C148.785 57.6173 148.435 57.9084 147.998 58.1249C147.565 58.3381 147.061 58.4447 146.485 58.4447ZM154.571 58.4447C153.82 58.4447 153.172 58.2789 152.627 57.9473C152.086 57.6123 151.668 57.1453 151.374 56.5463C151.083 55.9439 150.937 55.2434 150.937 54.4448C150.937 53.6462 151.083 52.9423 151.374 52.3332C151.668 51.7207 152.077 51.2435 152.602 50.9017C153.13 50.5566 153.746 50.384 154.45 50.384C154.856 50.384 155.257 50.4517 155.653 50.587C156.049 50.7224 156.409 50.9423 156.734 51.2469C157.059 51.5481 157.318 51.9474 157.511 52.4448C157.703 52.9423 157.8 53.5548 157.8 54.2824V54.79H151.79V53.7545H156.582C156.582 53.3145 156.494 52.922 156.318 52.5768C156.145 52.2317 155.898 51.9592 155.577 51.7596C155.258 51.5599 154.883 51.4601 154.45 51.4601C153.973 51.4601 153.56 51.5785 153.211 51.8154C152.866 52.0489 152.6 52.3535 152.414 52.7291C152.228 53.1047 152.135 53.5074 152.135 53.9372V54.6275C152.135 55.2164 152.237 55.7155 152.44 56.125C152.646 56.5311 152.932 56.8407 153.297 57.0539C153.663 57.2637 154.088 57.3686 154.571 57.3686C154.886 57.3686 155.17 57.3246 155.424 57.2366C155.681 57.1453 155.903 57.0099 156.089 56.8305C156.275 56.6478 156.419 56.4211 156.521 56.1504L157.678 56.4752C157.556 56.8678 157.351 57.2129 157.064 57.5107C156.776 57.8051 156.421 58.0353 155.998 58.2011C155.575 58.3635 155.099 58.4447 154.571 58.4447Z" fill="#D6D6D6"/>
<defs>
<linearGradient id="paint0_linear_1_1246" x1="-3.51993" y1="19.9625" x2="219.52" y2="59.2904" gradientUnits="userSpaceOnUse">
<stop stop-color="#BD1E7B"/>
<stop offset="1" stop-color="#3259E4"/>
</linearGradient>
</defs>
</svg>
