<svg width="32" height="32" viewBox="0 0 32 32" fill="none" xmlns="http://www.w3.org/2000/svg">
<g clip-path="url(#clip0_1_1098)">
<g clip-path="url(#clip1_1_1098)">
<g clip-path="url(#clip2_1_1098)">
<path d="M32 16C32 7.16344 24.8366 0 16 0C7.16344 0 0 7.16344 0 16C0 24.8366 7.16344 32 16 32C24.8366 32 32 24.8366 32 16Z" fill="#D33A93"/>
<path fill-rule="evenodd" clip-rule="evenodd" d="M8.67601 12.3711C8.67543 12.3582 8.67601 12.3453 8.67717 12.3317C8.6819 12.2543 8.70714 12.1815 8.74706 12.1192C8.78641 12.057 8.84154 12.0042 8.90968 11.966C8.92139 11.9602 8.93317 11.9537 8.94488 11.9484L15.7564 8.77013C15.8186 8.74082 15.8838 8.72729 15.9483 8.72729C16.0129 8.72729 16.078 8.74082 16.1403 8.77013L22.9524 11.9484C22.9642 11.9537 22.9759 11.9602 22.987 11.966C23.0551 12.0042 23.1103 12.057 23.1496 12.1192C23.1895 12.1815 23.2148 12.2543 23.2201 12.3317C23.2207 12.3453 23.2212 12.3581 23.2212 12.3711V22.8183C23.2212 23.069 23.0175 23.2727 22.7668 23.2727H20.9482C20.6975 23.2727 20.4938 23.069 20.4938 22.8183V15.0909C20.4938 14.8403 20.29 14.6366 20.0394 14.6366H11.8578C11.6065 14.6366 11.4028 14.8403 11.4028 15.0909V22.8183C11.4028 23.069 11.1991 23.2727 10.9484 23.2727H9.13026C8.87965 23.2727 8.67594 23.069 8.67594 22.8183L8.67601 12.3711Z" fill="white"/>
<path fill-rule="evenodd" clip-rule="evenodd" d="M17.7663 16.4542H18.2212C18.9738 16.4542 19.5849 17.0654 19.5849 17.8179V21.9086C19.5849 22.6612 18.9738 23.2723 18.2212 23.2723H13.6757C12.9231 23.2723 12.312 22.6612 12.312 21.9086V17.8179C12.312 17.0654 12.9231 16.4542 13.6757 16.4542H14.13V18.2724C14.13 19.025 14.7412 19.6361 15.4938 19.6361H16.4031C17.1557 19.6361 17.7663 19.025 17.7663 18.2724V16.4542Z" fill="white"/>
<path fill-rule="evenodd" clip-rule="evenodd" d="M15.0394 16.4542H16.8575V18.2724C16.8575 18.5231 16.6538 18.7267 16.4032 18.7267H15.4938C15.2432 18.7267 15.0395 18.523 15.0395 18.2724L15.0394 16.4542Z" fill="white"/>
</g>
</g>
</g>
<defs>
<clipPath id="clip0_1_1098">
<rect width="32" height="32" fill="white"/>
</clipPath>
<clipPath id="clip1_1_1098">
<rect width="32" height="32" fill="white"/>
</clipPath>
<clipPath id="clip2_1_1098">
<rect width="32" height="32" fill="white"/>
</clipPath>
</defs>
</svg>
