<svg width="32" height="32" viewBox="0 0 32 32" fill="none" xmlns="http://www.w3.org/2000/svg">
<g clip-path="url(#clip0_1_1127)">
<g clip-path="url(#clip1_1_1127)">
<g clip-path="url(#clip2_1_1127)">
<path d="M32 16C32 7.16344 24.8366 0 16 0C7.16344 0 0 7.16344 0 16C0 24.8366 7.16344 32 16 32C24.8366 32 32 24.8366 32 16Z" fill="#D33A93"/>
<path d="M9.52322 22.8931C9.3801 22.8931 9.24178 22.8362 9.13938 22.7344C9.0241 22.6191 8.96642 22.4585 8.98338 22.2964C9.0105 22.0306 9.27362 19.672 10.2203 18.7254C10.6116 18.3341 11.1317 18.1191 11.6844 18.1191C12.2378 18.1191 12.7579 18.3348 13.1485 18.7254C13.9561 19.5331 13.9561 20.8467 13.1485 21.6535C12.2018 22.6002 9.8433 22.8633 9.57754 22.8904C9.55922 22.8925 9.54082 22.8931 9.52322 22.8931Z" fill="white"/>
<path d="M22.7902 9.43225C22.7367 9.26673 22.6064 9.13657 22.441 9.08297C19.4456 8.11465 16.2049 8.89377 13.9819 11.1167C12.5429 12.5558 11.6838 14.47 11.5623 16.5079C11.5473 16.7561 11.7033 16.9826 11.9407 17.0572C12.6242 17.2729 13.2271 17.6377 13.7315 18.1422C14.2359 18.6467 14.6009 19.2489 14.8165 19.9324C14.8884 20.1589 15.0987 20.3114 15.3333 20.3114C15.3441 20.3114 15.355 20.3114 15.3659 20.3108C17.4035 20.1901 19.318 19.3302 20.757 17.8918C22.9799 15.6689 23.7585 12.4269 22.7902 9.43225ZM18.3125 15.7306C17.1143 15.7306 16.1425 14.7589 16.1425 13.5606C16.1425 12.3624 17.1143 11.3906 18.3125 11.3906C19.5107 11.3906 20.4825 12.3624 20.4825 13.5606C20.4825 14.7589 19.5107 15.7306 18.3125 15.7306Z" fill="white"/>
<path d="M17.389 21.0663L18.091 22.9712C18.1574 23.1523 18.3161 23.2844 18.5059 23.3177C18.5371 23.3232 18.569 23.3258 18.6002 23.3258C18.7582 23.3258 18.9108 23.2567 19.0138 23.134L20.7418 21.092C21.2476 20.4946 21.4206 19.6998 21.2205 18.9484C20.1233 19.952 18.809 20.673 17.389 21.0663Z" fill="white"/>
<path d="M12.926 10.653C12.1753 10.4536 11.3806 10.6259 10.7824 11.1317L8.74051 12.8596C8.59331 12.9844 8.52347 13.1776 8.55675 13.3682C8.59067 13.5581 8.72219 13.7161 8.90323 13.7832L10.8082 14.4851C11.2015 13.0651 11.9224 11.7502 12.926 10.653Z" fill="white"/>
</g>
</g>
</g>
<defs>
<clipPath id="clip0_1_1127">
<rect width="32" height="32" fill="white"/>
</clipPath>
<clipPath id="clip1_1_1127">
<rect width="32" height="32" fill="white"/>
</clipPath>
<clipPath id="clip2_1_1127">
<rect width="32" height="32" fill="white"/>
</clipPath>
</defs>
</svg>
