<svg width="283" height="64" viewBox="0 0 283 64" fill="none" xmlns="http://www.w3.org/2000/svg">
<rect width="222.27" height="64" rx="32" fill="#D33A93"/>
<path d="M46.957 28.2756C46.8813 27.6032 46.5688 27.0824 46.0195 26.7131C45.4703 26.339 44.779 26.152 43.9457 26.152C43.3491 26.152 42.833 26.2467 42.3974 26.4361C41.9618 26.6207 41.6232 26.8764 41.3817 27.2031C41.145 27.5251 41.0266 27.892 41.0266 28.304C41.0266 28.6496 41.1071 28.9479 41.2681 29.1989C41.4338 29.4498 41.6493 29.6605 41.9144 29.831C42.1843 29.9967 42.4731 30.1364 42.7809 30.25C43.0887 30.3589 43.3846 30.4489 43.6687 30.5199L45.0891 30.8892C45.5531 31.0028 46.029 31.1567 46.5167 31.3509C47.0044 31.545 47.4566 31.8007 47.8732 32.1179C48.2899 32.4351 48.6261 32.8281 48.8817 33.2969C49.1422 33.7656 49.2724 34.3267 49.2724 34.9801C49.2724 35.804 49.0593 36.5355 48.6332 37.1747C48.2118 37.8139 47.5986 38.3182 46.7937 38.6875C45.9935 39.0568 45.0252 39.2415 43.8888 39.2415C42.7998 39.2415 41.8576 39.0687 41.0621 38.723C40.2667 38.3774 39.6441 37.8873 39.1942 37.2528C38.7444 36.6136 38.4959 35.8561 38.4485 34.9801H40.6502C40.6928 35.5057 40.8633 35.9437 41.1616 36.294C41.4646 36.6397 41.8505 36.8977 42.3192 37.0682C42.7927 37.2339 43.3112 37.3168 43.8746 37.3168C44.4949 37.3168 45.0465 37.2197 45.5295 37.0256C46.0172 36.8267 46.4007 36.5521 46.68 36.2017C46.9594 35.8466 47.0991 35.4323 47.0991 34.9588C47.0991 34.5279 46.976 34.1752 46.7298 33.9006C46.4883 33.6259 46.1592 33.3987 45.7425 33.2188C45.3306 33.0388 44.8642 32.8802 44.3434 32.7429L42.6246 32.2741C41.4599 31.9569 40.5366 31.4905 39.8548 30.875C39.1777 30.2595 38.8391 29.4451 38.8391 28.4318C38.8391 27.5937 39.0664 26.8622 39.521 26.2372C39.9755 25.6122 40.591 25.1269 41.3675 24.7812C42.1441 24.4309 43.02 24.2557 43.9954 24.2557C44.9802 24.2557 45.8491 24.4285 46.6019 24.7741C47.3595 25.1198 47.9561 25.5956 48.3917 26.2017C48.8273 26.803 49.0546 27.4943 49.0735 28.2756H46.957ZM56.3196 39.2202C55.2637 39.2202 54.3546 38.9811 53.5923 38.5028C52.8348 38.0199 52.2524 37.3546 51.8452 36.5071C51.438 35.6596 51.2344 34.6889 51.2344 33.5952C51.2344 32.4872 51.4427 31.5095 51.8594 30.6619C52.276 29.8097 52.8632 29.1444 53.6207 28.6662C54.3783 28.188 55.2708 27.9489 56.2983 27.9489C57.1269 27.9489 57.8655 28.1027 58.5142 28.4105C59.1629 28.7135 59.6861 29.1397 60.0838 29.6889C60.4863 30.2382 60.7254 30.8797 60.8011 31.6136H58.7344C58.6207 31.1023 58.3603 30.6619 57.9531 30.2926C57.5507 29.9233 57.0109 29.7386 56.3338 29.7386C55.742 29.7386 55.2235 29.8949 54.7784 30.2074C54.3381 30.5152 53.9948 30.9555 53.7486 31.5284C53.5024 32.0966 53.3793 32.7689 53.3793 33.5455C53.3793 34.3409 53.5 35.0275 53.7415 35.6051C53.983 36.1828 54.3239 36.6302 54.7642 36.9474C55.2093 37.2647 55.7325 37.4233 56.3338 37.4233C56.7363 37.4233 57.1009 37.3499 57.4276 37.2031C57.759 37.0516 58.036 36.8362 58.2585 36.5568C58.4858 36.2775 58.6444 35.9413 58.7344 35.5483H60.8011C60.7254 36.2538 60.4957 36.8835 60.1122 37.4375C59.7287 37.9915 59.215 38.4271 58.571 38.7443C57.9318 39.0616 57.1813 39.2202 56.3196 39.2202ZM65.1957 32.5227V39H63.0721V24.4545H65.1673V29.8665H65.3022C65.5579 29.2794 65.9485 28.813 66.4741 28.4673C66.9996 28.1217 67.6862 27.9489 68.5337 27.9489C69.2818 27.9489 69.9353 28.1027 70.494 28.4105C71.0574 28.7183 71.493 29.1776 71.8008 29.7884C72.1133 30.3944 72.2695 31.152 72.2695 32.0611V39H70.146V32.3168C70.146 31.5166 69.94 30.8963 69.5281 30.456C69.1161 30.0109 68.5432 29.7884 67.8093 29.7884C67.3074 29.7884 66.8576 29.8949 66.4599 30.108C66.0669 30.321 65.7567 30.6335 65.5295 31.0455C65.3069 31.4527 65.1957 31.9451 65.1957 32.5227ZM79.805 39.2202C78.7302 39.2202 77.8046 38.9905 77.0281 38.5312C76.2563 38.0672 75.6597 37.4162 75.2383 36.5781C74.8216 35.7353 74.6133 34.7481 74.6133 33.6165C74.6133 32.4991 74.8216 31.5142 75.2383 30.6619C75.6597 29.8097 76.2468 29.1444 76.9996 28.6662C77.7572 28.188 78.6426 27.9489 79.6559 27.9489C80.2714 27.9489 80.868 28.0507 81.4457 28.2543C82.0233 28.4579 82.5418 28.7775 83.0011 29.2131C83.4603 29.6487 83.8226 30.2145 84.0877 30.9105C84.3529 31.6018 84.4854 32.4422 84.4854 33.4318V34.1847H75.8136V32.5938H82.4045C82.4045 32.035 82.2908 31.5402 82.0636 31.1094C81.8363 30.6738 81.5167 30.3305 81.1048 30.0795C80.6976 29.8286 80.2193 29.7031 79.6701 29.7031C79.0735 29.7031 78.5527 29.8499 78.1076 30.1435C77.6673 30.4323 77.3263 30.8111 77.0849 31.2798C76.8481 31.7438 76.7298 32.2481 76.7298 32.7926V34.0355C76.7298 34.7647 76.8576 35.3849 77.1133 35.8963C77.3737 36.4077 77.7359 36.7983 78.1999 37.0682C78.6639 37.3333 79.2061 37.4659 79.8263 37.4659C80.2288 37.4659 80.5958 37.4091 80.9272 37.2955C81.2586 37.1771 81.5451 37.0019 81.7866 36.7699C82.0281 36.5379 82.2127 36.2514 82.3406 35.9105L84.3505 36.2727C84.1895 36.8646 83.9007 37.383 83.484 37.8281C83.0721 38.2685 82.5536 38.6117 81.9286 38.858C81.3084 39.0994 80.6005 39.2202 79.805 39.2202ZM90.9254 39.2131C90.0447 39.2131 89.2588 38.9882 88.5675 38.5384C87.8809 38.0838 87.3411 37.4375 86.9482 36.5994C86.5599 35.7566 86.3658 34.7457 86.3658 33.5668C86.3658 32.3878 86.5623 31.3793 86.9553 30.5412C87.353 29.7031 87.8975 29.0616 88.5888 28.6165C89.2801 28.1714 90.0637 27.9489 90.9396 27.9489C91.6167 27.9489 92.1612 28.0625 92.5732 28.2898C92.9898 28.5123 93.3118 28.7727 93.5391 29.071C93.7711 29.3693 93.951 29.6321 94.0788 29.8594H94.2067V24.4545H96.3303V39H94.2564V37.3026H94.0788C93.951 37.5346 93.7663 37.7997 93.5249 38.098C93.2881 38.3963 92.9614 38.6567 92.5447 38.8793C92.1281 39.1018 91.5883 39.2131 90.9254 39.2131ZM91.3942 37.402C92.005 37.402 92.5211 37.241 92.9425 36.919C93.3686 36.5923 93.6906 36.1402 93.9084 35.5625C94.1309 34.9848 94.2422 34.3125 94.2422 33.5455C94.2422 32.7879 94.1333 32.125 93.9155 31.5568C93.6977 30.9886 93.3781 30.5459 92.9567 30.2287C92.5353 29.9115 92.0144 29.7528 91.3942 29.7528C90.755 29.7528 90.2223 29.9186 89.7962 30.25C89.37 30.5814 89.0481 31.0336 88.8303 31.6065C88.6172 32.1795 88.5107 32.8258 88.5107 33.5455C88.5107 34.2746 88.6196 34.9304 88.8374 35.5128C89.0552 36.0952 89.3771 36.5568 89.8033 36.8977C90.2341 37.2339 90.7644 37.402 91.3942 37.402ZM106.272 34.4759V28.0909H108.402V39H106.314V37.1108H106.201C105.95 37.6932 105.547 38.1785 104.993 38.5668C104.444 38.9503 103.76 39.142 102.941 39.142C102.24 39.142 101.62 38.9882 101.08 38.6804C100.545 38.3679 100.123 37.9062 99.8157 37.2955C99.5127 36.6847 99.3612 35.9295 99.3612 35.0298V28.0909H101.485V34.7741C101.485 35.5175 101.691 36.1094 102.103 36.5497C102.515 36.9901 103.05 37.2102 103.708 37.2102C104.105 37.2102 104.501 37.1108 104.894 36.9119C105.292 36.7131 105.621 36.4124 105.881 36.0099C106.146 35.6075 106.276 35.0961 106.272 34.4759ZM113.379 24.4545V39H111.256V24.4545H113.379ZM120.938 39.2202C119.863 39.2202 118.937 38.9905 118.161 38.5312C117.389 38.0672 116.792 37.4162 116.371 36.5781C115.954 35.7353 115.746 34.7481 115.746 33.6165C115.746 32.4991 115.954 31.5142 116.371 30.6619C116.792 29.8097 117.38 29.1444 118.132 28.6662C118.89 28.188 119.775 27.9489 120.789 27.9489C121.404 27.9489 122.001 28.0507 122.578 28.2543C123.156 28.4579 123.675 28.7775 124.134 29.2131C124.593 29.6487 124.955 30.2145 125.221 30.9105C125.486 31.6018 125.618 32.4422 125.618 33.4318V34.1847H116.946V32.5938H123.537C123.537 32.035 123.424 31.5402 123.196 31.1094C122.969 30.6738 122.65 30.3305 122.238 30.0795C121.83 29.8286 121.352 29.7031 120.803 29.7031C120.206 29.7031 119.685 29.8499 119.24 30.1435C118.8 30.4323 118.459 30.8111 118.218 31.2798C117.981 31.7438 117.863 32.2481 117.863 32.7926V34.0355C117.863 34.7647 117.99 35.3849 118.246 35.8963C118.507 36.4077 118.869 36.7983 119.333 37.0682C119.797 37.3333 120.339 37.4659 120.959 37.4659C121.362 37.4659 121.729 37.4091 122.06 37.2955C122.391 37.1771 122.678 37.0019 122.919 36.7699C123.161 36.5379 123.346 36.2514 123.473 35.9105L125.483 36.2727C125.322 36.8646 125.033 37.383 124.617 37.8281C124.205 38.2685 123.686 38.6117 123.061 38.858C122.441 39.0994 121.733 39.2202 120.938 39.2202ZM136.442 39.2415C135.751 39.2415 135.126 39.1136 134.567 38.858C134.008 38.5975 133.566 38.2211 133.239 37.7287C132.917 37.2363 132.756 36.6326 132.756 35.9176C132.756 35.3021 132.874 34.7955 133.111 34.3977C133.348 34 133.667 33.6851 134.07 33.4531C134.472 33.2211 134.922 33.0459 135.419 32.9276C135.917 32.8092 136.423 32.7192 136.939 32.6577C137.593 32.5819 138.123 32.5204 138.53 32.473C138.937 32.4209 139.233 32.3381 139.418 32.2244C139.603 32.1108 139.695 31.9261 139.695 31.6705V31.6207C139.695 31.0005 139.52 30.5199 139.169 30.179C138.824 29.8381 138.308 29.6676 137.621 29.6676C136.906 29.6676 136.343 29.8262 135.931 30.1435C135.524 30.456 135.242 30.804 135.086 31.1875L133.09 30.733C133.327 30.0701 133.672 29.535 134.127 29.1278C134.586 28.7159 135.114 28.4176 135.711 28.233C136.307 28.0436 136.935 27.9489 137.593 27.9489C138.028 27.9489 138.49 28.0009 138.978 28.1051C139.47 28.2045 139.929 28.3892 140.355 28.6591C140.786 28.929 141.139 29.3149 141.414 29.8168C141.688 30.3139 141.826 30.9602 141.826 31.7557V39H139.752V37.5085H139.667C139.529 37.7831 139.323 38.053 139.049 38.3182C138.774 38.5833 138.421 38.8035 137.99 38.9787C137.56 39.1539 137.043 39.2415 136.442 39.2415ZM136.904 37.5369C137.491 37.5369 137.993 37.4209 138.409 37.1889C138.831 36.9569 139.15 36.6539 139.368 36.2798C139.591 35.901 139.702 35.4962 139.702 35.0653V33.6591C139.626 33.7348 139.48 33.8059 139.262 33.8722C139.049 33.9337 138.805 33.9882 138.53 34.0355C138.256 34.0781 137.988 34.1184 137.728 34.1562C137.467 34.1894 137.249 34.2178 137.074 34.2415C136.662 34.2936 136.286 34.3812 135.945 34.5043C135.609 34.6274 135.339 34.8049 135.135 35.0369C134.936 35.2642 134.837 35.5672 134.837 35.946C134.837 36.4716 135.031 36.8693 135.419 37.1392C135.808 37.4044 136.302 37.5369 136.904 37.5369ZM162.199 29.1847H159.983C159.897 28.7112 159.739 28.2945 159.507 27.9347C159.275 27.5748 158.991 27.2694 158.654 27.0185C158.318 26.7675 157.942 26.5781 157.525 26.4503C157.113 26.3224 156.675 26.2585 156.211 26.2585C155.373 26.2585 154.623 26.4692 153.96 26.8906C153.302 27.312 152.781 27.9299 152.397 28.7443C152.019 29.5587 151.829 30.553 151.829 31.7273C151.829 32.911 152.019 33.91 152.397 34.7244C152.781 35.5388 153.304 36.1544 153.967 36.571C154.63 36.9877 155.376 37.196 156.204 37.196C156.663 37.196 157.099 37.1345 157.511 37.0114C157.928 36.8835 158.304 36.6965 158.64 36.4503C158.976 36.2041 159.261 35.9034 159.493 35.5483C159.729 35.1884 159.893 34.7765 159.983 34.3125L162.199 34.3196C162.08 35.0346 161.85 35.6927 161.51 36.294C161.173 36.8906 160.74 37.4067 160.21 37.8423C159.684 38.2732 159.083 38.607 158.406 38.8438C157.729 39.0805 156.99 39.1989 156.19 39.1989C154.931 39.1989 153.808 38.9006 152.824 38.304C151.839 37.7027 151.062 36.8433 150.494 35.7259C149.931 34.6084 149.649 33.2756 149.649 31.7273C149.649 30.1742 149.933 28.8414 150.501 27.7287C151.069 26.6113 151.846 25.7543 152.831 25.1577C153.815 24.5563 154.935 24.2557 156.19 24.2557C156.962 24.2557 157.681 24.367 158.349 24.5895C159.021 24.8073 159.625 25.1293 160.16 25.5554C160.695 25.9768 161.138 26.4929 161.488 27.1037C161.839 27.7098 162.075 28.4034 162.199 29.1847ZM167.829 39.2415C167.138 39.2415 166.513 39.1136 165.954 38.858C165.395 38.5975 164.952 38.2211 164.626 37.7287C164.304 37.2363 164.143 36.6326 164.143 35.9176C164.143 35.3021 164.261 34.7955 164.498 34.3977C164.735 34 165.054 33.6851 165.457 33.4531C165.859 33.2211 166.309 33.0459 166.806 32.9276C167.303 32.8092 167.81 32.7192 168.326 32.6577C168.979 32.5819 169.51 32.5204 169.917 32.473C170.324 32.4209 170.62 32.3381 170.805 32.2244C170.989 32.1108 171.082 31.9261 171.082 31.6705V31.6207C171.082 31.0005 170.906 30.5199 170.556 30.179C170.21 29.8381 169.694 29.6676 169.008 29.6676C168.293 29.6676 167.729 29.8262 167.317 30.1435C166.91 30.456 166.629 30.804 166.472 31.1875L164.477 30.733C164.713 30.0701 165.059 29.535 165.513 29.1278C165.973 28.7159 166.501 28.4176 167.097 28.233C167.694 28.0436 168.321 27.9489 168.979 27.9489C169.415 27.9489 169.877 28.0009 170.364 28.1051C170.857 28.2045 171.316 28.3892 171.742 28.6591C172.173 28.929 172.526 29.3149 172.8 29.8168C173.075 30.3139 173.212 30.9602 173.212 31.7557V39H171.138V37.5085H171.053C170.916 37.7831 170.71 38.053 170.435 38.3182C170.161 38.5833 169.808 38.8035 169.377 38.9787C168.946 39.1539 168.43 39.2415 167.829 39.2415ZM168.29 37.5369C168.878 37.5369 169.379 37.4209 169.796 37.1889C170.218 36.9569 170.537 36.6539 170.755 36.2798C170.978 35.901 171.089 35.4962 171.089 35.0653V33.6591C171.013 33.7348 170.866 33.8059 170.648 33.8722C170.435 33.9337 170.192 33.9882 169.917 34.0355C169.642 34.0781 169.375 34.1184 169.114 34.1562C168.854 34.1894 168.636 34.2178 168.461 34.2415C168.049 34.2936 167.673 34.3812 167.332 34.5043C166.996 34.6274 166.726 34.8049 166.522 35.0369C166.323 35.2642 166.224 35.5672 166.224 35.946C166.224 36.4716 166.418 36.8693 166.806 37.1392C167.194 37.4044 167.689 37.5369 168.29 37.5369ZM178.164 24.4545V39H176.041V24.4545H178.164ZM183.145 24.4545V39H181.021V24.4545H183.145Z" fill="white"/>
<rect x="218.27" width="64" height="64" rx="32" fill="#D33A93"/>
<path d="M257.126 25.0625L244 38.1882M257.126 25.0625L257.188 36.3756M257.126 25.0625L245.813 25" stroke="white" stroke-width="1.88235" stroke-linecap="round" stroke-linejoin="round"/>
</svg>
