<svg width="110" height="30" viewBox="0 0 110 30" fill="none" xmlns="http://www.w3.org/2000/svg">
<path d="M3.43371 12.1518C2.86143 12.1518 2.35338 12.0564 1.90956 11.8657C1.46964 11.671 1.12121 11.3791 0.864268 10.9897C0.611216 10.5965 0.484691 10.1041 0.484691 9.51231C0.484691 9.01399 0.572285 8.59354 0.747475 8.25095C0.922664 7.90835 1.16404 7.63 1.47159 7.41588C1.77915 7.20176 2.13342 7.04019 2.53441 6.93119C2.9354 6.81829 3.36364 6.74237 3.81913 6.70344C4.32912 6.65672 4.73985 6.60806 5.05129 6.55745C5.36274 6.50295 5.58854 6.42703 5.72869 6.3297C5.87274 6.22848 5.94476 6.08638 5.94476 5.90341V5.87421C5.94476 5.57444 5.84159 5.3428 5.63526 5.17929C5.42892 5.01578 5.15057 4.93403 4.80019 4.93403C4.42256 4.93403 4.1189 5.01578 3.8892 5.17929C3.65951 5.3428 3.51352 5.5686 3.45123 5.85669L0.817551 5.76326C0.895412 5.21822 1.09591 4.73159 1.41903 4.30335C1.74605 3.87121 2.19376 3.53251 2.76215 3.28725C3.33444 3.03809 4.02157 2.91351 4.82355 2.91351C5.39583 2.91351 5.92335 2.98164 6.40609 3.1179C6.88884 3.25026 7.30929 3.44492 7.66746 3.70186C8.02562 3.95491 8.30203 4.26636 8.49669 4.63621C8.69523 5.00605 8.79451 5.42845 8.79451 5.90341V12H6.10827V10.7503H6.03819C5.87858 11.054 5.67419 11.3109 5.42503 11.5211C5.17977 11.7314 4.88973 11.889 4.55492 11.9942C4.22401 12.0993 3.85027 12.1518 3.43371 12.1518ZM4.3155 10.2831C4.62305 10.2831 4.89946 10.2209 5.14473 10.0963C5.39389 9.9717 5.59244 9.8004 5.74037 9.58239C5.88831 9.36048 5.96228 9.10354 5.96228 8.81155V7.95896C5.88052 8.00179 5.78125 8.04072 5.66446 8.07576C5.55156 8.1108 5.42698 8.14389 5.29072 8.17503C5.15446 8.20618 5.01431 8.23343 4.87027 8.25679C4.72622 8.28015 4.58802 8.30156 4.45565 8.32102C4.18703 8.36385 3.95733 8.43003 3.76657 8.51957C3.5797 8.60911 3.43566 8.7259 3.33444 8.86995C3.23711 9.0101 3.18845 9.1775 3.18845 9.37216C3.18845 9.66803 3.29356 9.89383 3.50379 10.0496C3.71791 10.2053 3.98848 10.2831 4.3155 10.2831ZM10.5406 12V3.0303H13.256V4.67708H13.3553C13.5421 4.13205 13.8575 3.70186 14.3013 3.38652C14.7451 3.07118 15.2746 2.91351 15.8897 2.91351C16.5126 2.91351 17.0459 3.07313 17.4897 3.39236C17.9336 3.71159 18.2158 4.13984 18.3365 4.67708H18.4299C18.5973 4.14373 18.9243 3.71743 19.411 3.3982C19.8976 3.07507 20.4719 2.91351 21.1337 2.91351C21.9824 2.91351 22.6715 3.18603 23.2009 3.73106C23.7304 4.2722 23.9951 5.01578 23.9951 5.96181V12H21.1395V6.61585C21.1395 6.16814 21.0247 5.82749 20.795 5.59391C20.5653 5.35643 20.2675 5.23769 19.9015 5.23769C19.5083 5.23769 19.1988 5.36616 18.973 5.62311C18.7511 5.87616 18.6402 6.2168 18.6402 6.64504V12H15.8955V6.58665C15.8955 6.17009 15.7826 5.84112 15.5568 5.59975C15.331 5.35838 15.0332 5.23769 14.6634 5.23769C14.4142 5.23769 14.1942 5.29803 14.0035 5.41872C13.8127 5.53551 13.6628 5.70291 13.5538 5.92093C13.4487 6.13894 13.3961 6.39589 13.3961 6.69176V12H10.5406ZM28.2931 12.1518C27.7208 12.1518 27.2128 12.0564 26.7689 11.8657C26.329 11.671 25.9806 11.3791 25.7236 10.9897C25.4706 10.5965 25.3441 10.1041 25.3441 9.51231C25.3441 9.01399 25.4317 8.59354 25.6068 8.25095C25.782 7.90835 26.0234 7.63 26.331 7.41588C26.6385 7.20176 26.9928 7.04019 27.3938 6.93119C27.7948 6.81829 28.223 6.74237 28.6785 6.70344C29.1885 6.65672 29.5992 6.60806 29.9107 6.55745C30.2221 6.50295 30.4479 6.42703 30.5881 6.3297C30.7321 6.22848 30.8041 6.08638 30.8041 5.90341V5.87421C30.8041 5.57444 30.701 5.3428 30.4946 5.17929C30.2883 5.01578 30.0099 4.93403 29.6596 4.93403C29.2819 4.93403 28.9783 5.01578 28.7486 5.17929C28.5189 5.3428 28.3729 5.5686 28.3106 5.85669L25.6769 5.76326C25.7548 5.21822 25.9553 4.73159 26.2784 4.30335C26.6054 3.87121 27.0531 3.53251 27.6215 3.28725C28.1938 3.03809 28.8809 2.91351 29.6829 2.91351C30.2552 2.91351 30.7827 2.98164 31.2655 3.1179C31.7482 3.25026 32.1687 3.44492 32.5268 3.70186C32.885 3.95491 33.1614 4.26636 33.3561 4.63621C33.5546 5.00605 33.6539 5.42845 33.6539 5.90341V12H30.9676V10.7503H30.8976C30.738 11.054 30.5336 11.3109 30.2844 11.5211C30.0391 11.7314 29.7491 11.889 29.4143 11.9942C29.0834 12.0993 28.7096 12.1518 28.2931 12.1518ZM29.1749 10.2831C29.4824 10.2831 29.7588 10.2209 30.0041 10.0963C30.2533 9.9717 30.4518 9.8004 30.5997 9.58239C30.7477 9.36048 30.8217 9.10354 30.8217 8.81155V7.95896C30.7399 8.00179 30.6406 8.04072 30.5238 8.07576C30.4109 8.1108 30.2864 8.14389 30.1501 8.17503C30.0138 8.20618 29.8737 8.23343 29.7296 8.25679C29.5856 8.28015 29.4474 8.30156 29.315 8.32102C29.0464 8.36385 28.8167 8.43003 28.6259 8.51957C28.4391 8.60911 28.295 8.7259 28.1938 8.86995C28.0965 9.0101 28.0478 9.1775 28.0478 9.37216C28.0478 9.66803 28.1529 9.89383 28.3632 10.0496C28.5773 10.2053 28.8479 10.2831 29.1749 10.2831ZM35.4233 12V10.3707L39.5811 5.30776V5.24937H35.5693V3.0303H42.9856V4.81723L39.1315 9.72254V9.78093H43.1258V12H35.4233ZM48.9012 12.1693C47.9591 12.1693 47.1493 11.9766 46.4719 11.5912C45.7984 11.2019 45.2787 10.6608 44.9127 9.9678C44.5507 9.27094 44.3696 8.46312 44.3696 7.54435C44.3696 6.62169 44.5507 5.81387 44.9127 5.1209C45.2787 4.42403 45.7984 3.88289 46.4719 3.49747C47.1493 3.10816 47.9591 2.91351 48.9012 2.91351C49.8433 2.91351 50.6511 3.10816 51.3247 3.49747C52.0021 3.88289 52.5218 4.42403 52.8838 5.1209C53.2498 5.81387 53.4328 6.62169 53.4328 7.54435C53.4328 8.46312 53.2498 9.27094 52.8838 9.9678C52.5218 10.6608 52.0021 11.2019 51.3247 11.5912C50.6511 11.9766 49.8433 12.1693 48.9012 12.1693ZM48.9187 10.0145C49.2613 10.0145 49.5513 9.90941 49.7888 9.69918C50.0263 9.48895 50.2073 9.19697 50.3319 8.82323C50.4604 8.44949 50.5246 8.01736 50.5246 7.52683C50.5246 7.02851 50.4604 6.59249 50.3319 6.21875C50.2073 5.84501 50.0263 5.55303 49.7888 5.3428C49.5513 5.13258 49.2613 5.02746 48.9187 5.02746C48.5644 5.02746 48.2647 5.13258 48.0194 5.3428C47.778 5.55303 47.5931 5.84501 47.4646 6.21875C47.3401 6.59249 47.2778 7.02851 47.2778 7.52683C47.2778 8.01736 47.3401 8.44949 47.4646 8.82323C47.5931 9.19697 47.778 9.48895 48.0194 9.69918C48.2647 9.90941 48.5644 10.0145 48.9187 10.0145ZM57.7512 6.88447V12H54.8956V3.0303H57.611V4.67708H57.7103C57.9089 4.12816 58.2476 3.69797 58.7264 3.38652C59.2053 3.07118 59.7756 2.91351 60.4374 2.91351C61.0681 2.91351 61.6151 3.05561 62.0784 3.3398C62.5455 3.62011 62.9076 4.01331 63.1645 4.51941C63.4254 5.02162 63.5539 5.60948 63.55 6.28299V12H60.6944V6.84359C60.6983 6.34528 60.5717 5.95597 60.3148 5.67566C60.0617 5.39536 59.7094 5.25521 59.2578 5.25521C58.958 5.25521 58.6933 5.32139 58.4636 5.45376C58.2378 5.58223 58.0626 5.76715 57.9381 6.00852C57.8174 6.24989 57.7551 6.54188 57.7512 6.88447ZM73.1489 5.7691L70.5269 5.83917C70.4996 5.6523 70.4257 5.48685 70.305 5.3428C70.1843 5.19487 70.0266 5.08002 69.832 4.99826C69.6412 4.91262 69.4193 4.86979 69.1662 4.86979C68.8353 4.86979 68.5531 4.93597 68.3195 5.06834C68.0898 5.2007 67.9769 5.37979 67.9808 5.60559C67.9769 5.78078 68.047 5.93261 68.191 6.06108C68.339 6.18955 68.6017 6.29272 68.9794 6.37058L70.7079 6.6976C71.6033 6.8689 72.269 7.15309 72.7051 7.55019C73.145 7.94729 73.3669 8.47285 73.3708 9.12689C73.3669 9.742 73.1839 10.2773 72.8219 10.7328C72.4637 11.1883 71.9732 11.5426 71.3503 11.7956C70.7274 12.0448 70.0149 12.1693 69.213 12.1693C67.9321 12.1693 66.9219 11.9066 66.1822 11.381C65.4464 10.8515 65.0259 10.143 64.9208 9.25537L67.7414 9.18529C67.8037 9.51231 67.9652 9.76147 68.2261 9.93277C68.4869 10.1041 68.8198 10.1897 69.2246 10.1897C69.5906 10.1897 69.8884 10.1216 70.1181 9.98532C70.3478 9.84906 70.4646 9.66803 70.4685 9.44223C70.4646 9.23979 70.375 9.07823 70.1999 8.95754C70.0247 8.83297 69.7502 8.73564 69.3765 8.66556L67.8114 8.36774C66.9121 8.20423 66.2425 7.90251 65.8026 7.46259C65.3627 7.01878 65.1447 6.45428 65.1486 5.7691C65.1447 5.16956 65.3043 4.65762 65.6274 4.23327C65.9505 3.80503 66.4099 3.47801 67.0056 3.25221C67.6012 3.02641 68.3039 2.91351 69.1137 2.91351C70.3283 2.91351 71.286 3.16851 71.9868 3.6785C72.6875 4.18461 73.0749 4.88147 73.1489 5.7691ZM78.9695 12.1693C78.0313 12.1693 77.2215 11.9844 76.5402 11.6146C75.8628 11.2408 75.3412 10.7094 74.9752 10.0204C74.6132 9.32739 74.4321 8.504 74.4321 7.55019C74.4321 6.62363 74.6151 5.81387 74.9811 5.1209C75.347 4.42403 75.8628 3.88289 76.5286 3.49747C77.1943 3.10816 77.9787 2.91351 78.8819 2.91351C79.5204 2.91351 80.1044 3.01278 80.6338 3.21133C81.1633 3.40988 81.6207 3.70381 82.0062 4.09312C82.3916 4.48243 82.6913 4.96323 82.9055 5.53551C83.1196 6.1039 83.2266 6.756 83.2266 7.49179V8.20423H75.4307V6.54577H80.5696C80.5657 6.24211 80.4937 5.97154 80.3535 5.73406C80.2134 5.49658 80.0207 5.31166 79.7754 5.17929C79.534 5.04303 79.2557 4.9749 78.9403 4.9749C78.6211 4.9749 78.335 5.04693 78.0819 5.19097C77.8289 5.33112 77.6284 5.52383 77.4804 5.7691C77.3325 6.01047 77.2546 6.28493 77.2468 6.59249V8.28015C77.2468 8.6461 77.3189 8.96728 77.4629 9.24369C77.607 9.5162 77.8113 9.72838 78.0761 9.88021C78.3408 10.032 78.6561 10.108 79.0221 10.108C79.2751 10.108 79.5048 10.0729 79.7112 10.0028C79.9175 9.93277 80.0946 9.8296 80.2426 9.69334C80.3905 9.55708 80.5015 9.38968 80.5754 9.19113L83.1974 9.26705C83.0884 9.8549 82.849 10.3668 82.4792 10.8029C82.1132 11.235 81.6324 11.5718 81.0368 11.8131C80.4411 12.0506 79.7521 12.1693 78.9695 12.1693ZM87.5407 0.0404035V12H84.6851V0.0404035H87.5407ZM92.2139 0.0404035V12H89.3583V0.0404035H92.2139ZM98.2243 12.1693C97.2861 12.1693 96.4763 11.9844 95.795 11.6146C95.1176 11.2408 94.5959 10.7094 94.23 10.0204C93.8679 9.32739 93.6869 8.504 93.6869 7.55019C93.6869 6.62363 93.8699 5.81387 94.2358 5.1209C94.6018 4.42403 95.1176 3.88289 95.7833 3.49747C96.4491 3.10816 97.2335 2.91351 98.1367 2.91351C98.7752 2.91351 99.3592 3.01278 99.8886 3.21133C100.418 3.40988 100.876 3.70381 101.261 4.09312C101.646 4.48243 101.946 4.96323 102.16 5.53551C102.374 6.1039 102.481 6.756 102.481 7.49179V8.20423H94.6855V6.54577H99.8244C99.8205 6.24211 99.7485 5.97154 99.6083 5.73406C99.4682 5.49658 99.2755 5.31166 99.0302 5.17929C98.7888 5.04303 98.5105 4.9749 98.1951 4.9749C97.8759 4.9749 97.5897 5.04693 97.3367 5.19097C97.0836 5.33112 96.8831 5.52383 96.7352 5.7691C96.5873 6.01047 96.5094 6.28493 96.5016 6.59249V8.28015C96.5016 8.6461 96.5736 8.96728 96.7177 9.24369C96.8617 9.5162 97.0661 9.72838 97.3309 9.88021C97.5956 10.032 97.9109 10.108 98.2769 10.108C98.5299 10.108 98.7596 10.0729 98.966 10.0028C99.1723 9.93277 99.3494 9.8296 99.4974 9.69334C99.6453 9.55708 99.7563 9.38968 99.8302 9.19113L102.452 9.26705C102.343 9.8549 102.104 10.3668 101.734 10.8029C101.368 11.235 100.887 11.5718 100.292 11.8131C99.6959 12.0506 99.0068 12.1693 98.2243 12.1693ZM103.94 12V3.0303H106.714V4.6654H106.807C106.971 4.07365 107.237 3.63373 107.607 3.34564C107.977 3.05366 108.407 2.90767 108.898 2.90767C109.03 2.90767 109.166 2.9174 109.307 2.93687C109.447 2.95244 109.577 2.97775 109.698 3.01278V5.49463C109.562 5.44792 109.382 5.41093 109.161 5.38368C108.943 5.35643 108.748 5.3428 108.577 5.3428C108.238 5.3428 107.932 5.41872 107.66 5.57055C107.391 5.71849 107.179 5.92677 107.023 6.19539C106.871 6.46012 106.795 6.77157 106.795 7.12973V12H103.94ZM8.73611 19.7691L6.11411 19.8392C6.08686 19.6523 6.01289 19.4868 5.8922 19.3428C5.77152 19.1949 5.61385 19.08 5.41919 18.9983C5.22843 18.9126 5.00652 18.8698 4.75347 18.8698C4.42256 18.8698 4.14031 18.936 3.90672 19.0683C3.67703 19.2007 3.56413 19.3798 3.56802 19.6056C3.56413 19.7808 3.63421 19.9326 3.77825 20.0611C3.92619 20.1896 4.18897 20.2927 4.5666 20.3706L6.29514 20.6976C7.19055 20.8689 7.85627 21.1531 8.2923 21.5502C8.73222 21.9473 8.95413 22.4729 8.95802 23.1269C8.95413 23.742 8.77115 24.2773 8.40909 24.7328C8.05093 25.1883 7.5604 25.5426 6.9375 25.7956C6.3146 26.0448 5.60217 26.1693 4.80019 26.1693C3.51936 26.1693 2.5091 25.9066 1.76941 25.381C1.03362 24.8515 0.613163 24.143 0.508049 23.2554L3.3286 23.1853C3.39089 23.5123 3.55245 23.7615 3.81329 23.9328C4.07413 24.1041 4.40699 24.1897 4.81187 24.1897C5.17782 24.1897 5.47564 24.1216 5.70533 23.9853C5.93503 23.8491 6.05182 23.668 6.05571 23.4422C6.05182 23.2398 5.96228 23.0782 5.78709 22.9575C5.6119 22.833 5.33744 22.7356 4.9637 22.6656L3.39867 22.3677C2.49937 22.2042 1.82976 21.9025 1.38984 21.4626C0.949916 21.0188 0.731902 20.4543 0.735795 19.7691C0.731902 19.1696 0.891519 18.6576 1.21465 18.2333C1.53777 17.805 1.99716 17.478 2.5928 17.2522C3.18845 17.0264 3.89115 16.9135 4.70092 16.9135C5.91556 16.9135 6.87326 17.1685 7.57402 17.6785C8.27478 18.1846 8.66214 18.8815 8.73611 19.7691ZM16.151 22.1283V17.0303H19.0008V26H16.2795V24.3299H16.186C15.9875 24.8788 15.6488 25.3148 15.1699 25.6379C14.695 25.9572 14.1208 26.1168 13.4472 26.1168C12.836 26.1168 12.2988 25.9766 11.8355 25.6963C11.3722 25.416 11.0121 25.0248 10.7552 24.5226C10.4982 24.0165 10.3678 23.4247 10.3639 22.7473V17.0303H13.2195V22.1867C13.2234 22.6733 13.3519 23.0568 13.6049 23.3371C13.858 23.6174 14.2025 23.7576 14.6385 23.7576C14.9227 23.7576 15.1777 23.6953 15.4035 23.5707C15.6332 23.4422 15.8143 23.2573 15.9466 23.0159C16.0829 22.7707 16.151 22.4748 16.151 22.1283ZM20.8183 29.3636V17.0303H23.6447V18.5661H23.7323C23.8491 18.2936 24.0146 18.0308 24.2287 17.7778C24.4467 17.5247 24.7231 17.3184 25.0579 17.1588C25.3966 16.9953 25.8015 16.9135 26.2726 16.9135C26.8955 16.9135 27.4775 17.077 28.0186 17.404C28.5637 17.7311 29.0036 18.2352 29.3384 18.9165C29.6732 19.5978 29.8406 20.466 29.8406 21.521C29.8406 22.5371 29.679 23.3877 29.3559 24.0729C29.0367 24.7581 28.6045 25.272 28.0595 25.6146C27.5184 25.9572 26.9169 26.1285 26.2551 26.1285C25.8035 26.1285 25.4122 26.0545 25.0813 25.9066C24.7504 25.7586 24.472 25.564 24.2462 25.3226C24.0243 25.0812 23.853 24.8223 23.7323 24.5459H23.6739V29.3636H20.8183ZM23.6155 21.5152C23.6155 21.9979 23.6798 22.4184 23.8082 22.7765C23.9406 23.1347 24.1294 23.413 24.3747 23.6116C24.6238 23.8062 24.9217 23.9036 25.2682 23.9036C25.6185 23.9036 25.9164 23.8062 26.1616 23.6116C26.4069 23.413 26.5918 23.1347 26.7164 22.7765C26.8449 22.4184 26.9091 21.9979 26.9091 21.5152C26.9091 21.0324 26.8449 20.6139 26.7164 20.2596C26.5918 19.9054 26.4069 19.6309 26.1616 19.4362C25.9202 19.2416 25.6224 19.1443 25.2682 19.1443C24.9178 19.1443 24.6199 19.2396 24.3747 19.4304C24.1294 19.6212 23.9406 19.8937 23.8082 20.2479C23.6798 20.6022 23.6155 21.0246 23.6155 21.5152ZM31.337 29.3636V17.0303H34.1634V18.5661H34.251C34.3678 18.2936 34.5332 18.0308 34.7474 17.7778C34.9654 17.5247 35.2418 17.3184 35.5766 17.1588C35.9153 16.9953 36.3202 16.9135 36.7912 16.9135C37.4141 16.9135 37.9961 17.077 38.5373 17.404C39.0823 17.7311 39.5222 18.2352 39.857 18.9165C40.1919 19.5978 40.3593 20.466 40.3593 21.521C40.3593 22.5371 40.1977 23.3877 39.8746 24.0729C39.5553 24.7581 39.1232 25.272 38.5782 25.6146C38.037 25.9572 37.4355 26.1285 36.7737 26.1285C36.3221 26.1285 35.9309 26.0545 35.5999 25.9066C35.269 25.7586 34.9907 25.564 34.7649 25.3226C34.543 25.0812 34.3717 24.8223 34.251 24.5459H34.1926V29.3636H31.337ZM34.1342 21.5152C34.1342 21.9979 34.1984 22.4184 34.3269 22.7765C34.4593 23.1347 34.6481 23.413 34.8933 23.6116C35.1425 23.8062 35.4403 23.9036 35.7868 23.9036C36.1372 23.9036 36.435 23.8062 36.6803 23.6116C36.9255 23.413 37.1105 23.1347 37.235 22.7765C37.3635 22.4184 37.4278 21.9979 37.4278 21.5152C37.4278 21.0324 37.3635 20.6139 37.235 20.2596C37.1105 19.9054 36.9255 19.6309 36.6803 19.4362C36.4389 19.2416 36.1411 19.1443 35.7868 19.1443C35.4364 19.1443 35.1386 19.2396 34.8933 19.4304C34.6481 19.6212 34.4593 19.8937 34.3269 20.2479C34.1984 20.6022 34.1342 21.0246 34.1342 21.5152ZM46.0427 26.1693C45.1006 26.1693 44.2908 25.9766 43.6134 25.5912C42.9399 25.2019 42.4202 24.6608 42.0542 23.9678C41.6922 23.2709 41.5111 22.4631 41.5111 21.5443C41.5111 20.6217 41.6922 19.8139 42.0542 19.1209C42.4202 18.424 42.9399 17.8829 43.6134 17.4975C44.2908 17.1082 45.1006 16.9135 46.0427 16.9135C46.9848 16.9135 47.7926 17.1082 48.4661 17.4975C49.1435 17.8829 49.6633 18.424 50.0253 19.1209C50.3913 19.8139 50.5743 20.6217 50.5743 21.5443C50.5743 22.4631 50.3913 23.2709 50.0253 23.9678C49.6633 24.6608 49.1435 25.2019 48.4661 25.5912C47.7926 25.9766 46.9848 26.1693 46.0427 26.1693ZM46.0602 24.0145C46.4028 24.0145 46.6928 23.9094 46.9303 23.6992C47.1678 23.489 47.3488 23.197 47.4734 22.8232C47.6019 22.4495 47.6661 22.0174 47.6661 21.5268C47.6661 21.0285 47.6019 20.5925 47.4734 20.2187C47.3488 19.845 47.1678 19.553 46.9303 19.3428C46.6928 19.1326 46.4028 19.0275 46.0602 19.0275C45.7059 19.0275 45.4062 19.1326 45.1609 19.3428C44.9195 19.553 44.7346 19.845 44.6061 20.2187C44.4816 20.5925 44.4193 21.0285 44.4193 21.5268C44.4193 22.0174 44.4816 22.4495 44.6061 22.8232C44.7346 23.197 44.9195 23.489 45.1609 23.6992C45.4062 23.9094 45.7059 24.0145 46.0602 24.0145ZM52.0371 26V17.0303H54.8109V18.6654H54.9044C55.0679 18.0737 55.3345 17.6337 55.7044 17.3456C56.0742 17.0537 56.5044 16.9077 56.995 16.9077C57.1273 16.9077 57.2636 16.9174 57.4037 16.9369C57.5439 16.9524 57.6743 16.9777 57.795 17.0128V19.4946C57.6587 19.4479 57.4796 19.4109 57.2577 19.3837C57.0397 19.3564 56.8451 19.3428 56.6738 19.3428C56.3351 19.3428 56.0295 19.4187 55.7569 19.5705C55.4883 19.7185 55.2761 19.9268 55.1204 20.1954C54.9686 20.4601 54.8927 20.7716 54.8927 21.1297V26H52.0371ZM64.439 17.0303V19.1326H58.7804V17.0303H64.439ZM59.9659 14.8813H62.8215V23.1795C62.8215 23.3546 62.8487 23.4967 62.9032 23.6057C62.9616 23.7109 63.0453 23.7868 63.1543 23.8335C63.2633 23.8763 63.3937 23.8977 63.5456 23.8977C63.6546 23.8977 63.7694 23.888 63.8901 23.8685C64.0147 23.8452 64.1081 23.8257 64.1704 23.8101L64.6025 25.8715C64.4663 25.9105 64.2736 25.9591 64.0244 26.0175C63.7792 26.0759 63.4852 26.1129 63.1426 26.1285C62.473 26.1596 61.8988 26.0818 61.4199 25.8949C60.945 25.7041 60.581 25.4082 60.3279 25.0073C60.0788 24.6063 59.9581 24.1021 59.9659 23.4948V14.8813ZM67.5019 26.1693C67.0815 26.1693 66.7214 26.0214 66.4216 25.7255C66.1257 25.4297 65.9797 25.0715 65.9836 24.651C65.9797 24.2384 66.1257 23.886 66.4216 23.5941C66.7214 23.2982 67.0815 23.1503 67.5019 23.1503C67.899 23.1503 68.2494 23.2982 68.5531 23.5941C68.8606 23.886 69.0164 24.2384 69.0202 24.651C69.0164 24.9313 68.9424 25.1863 68.7983 25.416C68.6582 25.6457 68.4733 25.8287 68.2436 25.965C68.0178 26.1012 67.7706 26.1693 67.5019 26.1693Z" fill="white"/>
<path d="M73.435 26.1518C72.8627 26.1518 72.3547 26.0564 71.9109 25.8657C71.4709 25.671 71.1225 25.3791 70.8656 24.9897C70.6125 24.5965 70.486 24.1041 70.486 23.5123C70.486 23.014 70.5736 22.5935 70.7488 22.2509C70.924 21.9084 71.1653 21.63 71.4729 21.4159C71.7805 21.2018 72.1347 21.0402 72.5357 20.9312C72.9367 20.8183 73.3649 20.7424 73.8204 20.7034C74.3304 20.6567 74.7412 20.6081 75.0526 20.5574C75.364 20.5029 75.5898 20.427 75.73 20.3297C75.874 20.2285 75.9461 20.0864 75.9461 19.9034V19.8742C75.9461 19.5744 75.8429 19.3428 75.6366 19.1793C75.4302 19.0158 75.1519 18.934 74.8015 18.934C74.4239 18.934 74.1202 19.0158 73.8905 19.1793C73.6608 19.3428 73.5148 19.5686 73.4525 19.8567L70.8189 19.7633C70.8967 19.2182 71.0972 18.7316 71.4203 18.3033C71.7474 17.8712 72.1951 17.5325 72.7635 17.2872C73.3357 17.0381 74.0229 16.9135 74.8249 16.9135C75.3971 16.9135 75.9247 16.9816 76.4074 17.1179C76.8901 17.2503 77.3106 17.4449 77.6688 17.7019C78.0269 17.9549 78.3033 18.2664 78.498 18.6362C78.6965 19.006 78.7958 19.4285 78.7958 19.9034V26H76.1096V24.7503H76.0395C75.8799 25.054 75.6755 25.3109 75.4263 25.5211C75.1811 25.7314 74.891 25.889 74.5562 25.9942C74.2253 26.0993 73.8516 26.1518 73.435 26.1518ZM74.3168 24.2831C74.6244 24.2831 74.9008 24.2209 75.146 24.0963C75.3952 23.9717 75.5937 23.8004 75.7417 23.5824C75.8896 23.3605 75.9636 23.1035 75.9636 22.8116V21.959C75.8818 22.0018 75.7826 22.0407 75.6658 22.0758C75.5529 22.1108 75.4283 22.1439 75.292 22.175C75.1558 22.2062 75.0156 22.2334 74.8716 22.2568C74.7275 22.2801 74.5893 22.3016 74.457 22.321C74.1883 22.3638 73.9586 22.43 73.7679 22.5196C73.581 22.6091 73.437 22.7259 73.3357 22.8699C73.2384 23.0101 73.1898 23.1775 73.1898 23.3722C73.1898 23.668 73.2949 23.8938 73.5051 24.0496C73.7192 24.2053 73.9898 24.2831 74.3168 24.2831ZM84.7347 26.1693C83.7965 26.1693 82.9867 25.9844 82.3054 25.6146C81.628 25.2408 81.1064 24.7094 80.7404 24.0204C80.3784 23.3274 80.1973 22.504 80.1973 21.5502C80.1973 20.6236 80.3803 19.8139 80.7463 19.1209C81.1122 18.424 81.628 17.8829 82.2938 17.4975C82.9595 17.1082 83.7439 16.9135 84.6471 16.9135C85.2856 16.9135 85.8696 17.0128 86.399 17.2113C86.9285 17.4099 87.3859 17.7038 87.7713 18.0931C88.1568 18.4824 88.4565 18.9632 88.6707 19.5355C88.8848 20.1039 88.9918 20.756 88.9918 21.4918V22.2042H81.1959V20.5458H86.3348C86.3309 20.2421 86.2589 19.9715 86.1187 19.7341C85.9786 19.4966 85.7859 19.3117 85.5406 19.1793C85.2992 19.043 85.0209 18.9749 84.7055 18.9749C84.3863 18.9749 84.1002 19.0469 83.8471 19.191C83.5941 19.3311 83.3936 19.5238 83.2456 19.7691C83.0977 20.0105 83.0198 20.2849 83.012 20.5925V22.2801C83.012 22.6461 83.0841 22.9673 83.2281 23.2437C83.3721 23.5162 83.5765 23.7284 83.8413 23.8802C84.106 24.032 84.4213 24.108 84.7873 24.108C85.0403 24.108 85.27 24.0729 85.4764 24.0028C85.6827 23.9328 85.8598 23.8296 86.0078 23.6933C86.1557 23.5571 86.2667 23.3897 86.3406 23.1911L88.9626 23.267C88.8536 23.8549 88.6142 24.3668 88.2444 24.8029C87.8784 25.235 87.3976 25.5718 86.802 25.8131C86.2063 26.0506 85.5172 26.1693 84.7347 26.1693Z" fill="url(#paint0_linear_10_413)"/>
<defs>
<linearGradient id="paint0_linear_10_413" x1="72" y1="17.7887" x2="90.5" y2="26.2887" gradientUnits="userSpaceOnUse">
<stop stop-color="#8969BB"/>
<stop offset="1" stop-color="#B82581"/>
</linearGradient>
</defs>
</svg>
