<svg width="90" height="105" viewBox="0 0 90 105" fill="none" xmlns="http://www.w3.org/2000/svg">
<rect y="30" width="90" height="45" fill="#D33A93"/>
<path d="M45 41.3652C46.3672 41.3652 47.6855 41.5801 48.9551 42.0098C50.2441 42.4199 51.377 42.957 52.3535 43.6211C53.3301 44.2656 54.2383 44.9883 55.0781 45.7891C55.9375 46.5898 56.6602 47.3906 57.2461 48.1914C57.832 48.9922 58.3398 49.7246 58.7695 50.3887C59.1992 51.0527 59.5117 51.5898 59.707 52L60 52.6152C59.9609 52.7129 59.9023 52.8496 59.8242 53.0254C59.7461 53.1816 59.5605 53.5137 59.2676 54.0215C58.9746 54.5488 58.6621 55.0566 58.3301 55.5449C57.998 56.0527 57.5684 56.6387 57.041 57.3027C56.4941 57.9863 55.9375 58.6113 55.3711 59.1777C54.8047 59.7637 54.1309 60.3594 53.3496 60.9648C52.5488 61.5508 51.7383 62.0488 50.918 62.459C50.0977 62.8691 49.1699 63.2109 48.1348 63.4844C47.1191 63.7383 46.0742 63.8652 45 63.8652C43.6328 63.8652 42.3145 63.6602 41.0449 63.25C39.7559 62.8398 38.623 62.3027 37.6465 61.6387C36.6699 60.9941 35.7617 60.2715 34.9219 59.4707C34.0625 58.6699 33.3398 57.8789 32.7539 57.0977C32.168 56.2969 31.6602 55.5645 31.2305 54.9004C30.8008 54.2363 30.4883 53.6992 30.293 53.2891L30 52.6738C30.0391 52.5762 30.0977 52.4492 30.1758 52.293C30.2539 52.1172 30.4395 51.7754 30.7324 51.2676C31.0254 50.7402 31.3379 50.2324 31.6699 49.7441C32.002 49.2363 32.4316 48.6504 32.959 47.9863C33.5059 47.3027 34.0625 46.668 34.6289 46.082C35.1953 45.4961 35.8789 44.9102 36.6797 44.3242C37.4609 43.7188 38.2617 43.2109 39.082 42.8008C39.9023 42.3711 40.8301 42.0293 41.8652 41.7754C42.8809 41.502 43.9258 41.3652 45 41.3652ZM45 43.8848C44.082 43.8848 43.1836 44.002 42.3047 44.2363C41.4258 44.4707 40.6348 44.7832 39.9316 45.1738C39.2285 45.5449 38.5352 46.0039 37.8516 46.5508C37.1875 47.0977 36.6113 47.625 36.123 48.1328C35.6348 48.6602 35.1562 49.2266 34.6875 49.832C34.2188 50.4375 33.8477 50.9551 33.5742 51.3848C33.3008 51.8145 33.0469 52.2441 32.8125 52.6738C33.0469 53.1035 33.3008 53.5234 33.5742 53.9336C33.8477 54.3633 34.2188 54.8809 34.6875 55.4863C35.1562 56.0723 35.6348 56.6289 36.123 57.1562C36.6113 57.6641 37.1875 58.1914 37.8516 58.7383C38.5352 59.2656 39.2285 59.7148 39.9316 60.0859C40.6348 60.4766 41.4258 60.7891 42.3047 61.0234C43.1836 61.2578 44.082 61.375 45 61.375C45.918 61.375 46.8164 61.2578 47.6953 61.0234C48.5742 60.7695 49.3652 60.457 50.0684 60.0859C50.7715 59.7148 51.4648 59.2559 52.1484 58.709C52.8125 58.1816 53.3887 57.6543 53.877 57.127C54.3652 56.5996 54.8438 56.043 55.3125 55.457C55.7812 54.8516 56.1523 54.334 56.4258 53.9043C56.6992 53.4746 56.9531 53.0449 57.1875 52.6152C56.9531 52.2051 56.6992 51.7852 56.4258 51.3555C56.1523 50.9258 55.7812 50.4082 55.3125 49.8027C54.8438 49.1973 54.3652 48.6406 53.877 48.1328C53.3887 47.6055 52.8125 47.0684 52.1484 46.5215C51.4648 45.9941 50.7715 45.5449 50.0684 45.1738C49.3652 44.7832 48.5742 44.4707 47.6953 44.2363C46.8164 44.002 45.918 43.8848 45 43.8848ZM45 47.6348C46.3867 47.6348 47.5684 48.123 48.5449 49.0996C49.5215 50.0762 50.0098 51.248 50.0098 52.6152C50.0098 54.002 49.5215 55.1836 48.5449 56.1602C47.5684 57.1367 46.3867 57.625 45 57.625C43.6133 57.625 42.4316 57.1367 41.4551 56.1602C40.4785 55.1836 39.9902 54.002 39.9902 52.6152C39.9902 51.248 40.4785 50.0762 41.4551 49.0996C42.4316 48.123 43.6133 47.6348 45 47.6348ZM45 50.125C44.3164 50.125 43.7305 50.3691 43.2422 50.8574C42.7539 51.3457 42.5098 51.9316 42.5098 52.6152C42.5098 53.3184 42.7539 53.9141 43.2422 54.4023C43.7305 54.8906 44.3164 55.1348 45 55.1348C45.6836 55.1348 46.2695 54.8906 46.7578 54.4023C47.2461 53.9141 47.4902 53.3184 47.4902 52.6152C47.4902 51.9316 47.2461 51.3457 46.7578 50.8574C46.2695 50.3691 45.6836 50.125 45 50.125Z" fill="white"/>
<mask id="path-3-inside-1_55_4" fill="white">
<path d="M0 75H90V105H0V75Z"/>
</mask>
<g clip-path="url(#paint0_diamond_55_4_clip_path)" data-figma-skip-parse="true" mask="url(#path-3-inside-1_55_4)"><g transform="matrix(0.045 0 0 0.03 45 75)"><rect x="0" y="0" width="1022.22" height="1033.33" fill="url(#paint0_diamond_55_4)" opacity="1" shape-rendering="crispEdges"/><rect x="0" y="0" width="1022.22" height="1033.33" transform="scale(1 -1)" fill="url(#paint0_diamond_55_4)" opacity="1" shape-rendering="crispEdges"/><rect x="0" y="0" width="1022.22" height="1033.33" transform="scale(-1 1)" fill="url(#paint0_diamond_55_4)" opacity="1" shape-rendering="crispEdges"/><rect x="0" y="0" width="1022.22" height="1033.33" transform="scale(-1)" fill="url(#paint0_diamond_55_4)" opacity="1" shape-rendering="crispEdges"/></g></g><path d="M0 75V45H-45V75H0ZM90 75H135V45H90V75ZM0 75V105H90V75V45H0V75ZM90 75H45V105H90H135V75H90ZM0 105H45V75H0H-45V105H0Z" data-figma-gradient-fill="{&#34;type&#34;:&#34;GRADIENT_DIAMOND&#34;,&#34;stops&#34;:[{&#34;color&#34;:{&#34;r&#34;:0.74117648601531982,&#34;g&#34;:0.11764705926179886,&#34;b&#34;:0.48235294222831726,&#34;a&#34;:1.0},&#34;position&#34;:0.99999988079071045},{&#34;color&#34;:{&#34;r&#34;:0.0,&#34;g&#34;:0.0,&#34;b&#34;:0.0,&#34;a&#34;:0.0},&#34;position&#34;:1.0}],&#34;stopsVar&#34;:[{&#34;color&#34;:{&#34;r&#34;:0.74117648601531982,&#34;g&#34;:0.11764705926179886,&#34;b&#34;:0.48235294222831726,&#34;a&#34;:1.0},&#34;position&#34;:0.99999988079071045},{&#34;color&#34;:{&#34;r&#34;:0.0,&#34;g&#34;:0.0,&#34;b&#34;:0.0,&#34;a&#34;:0.0},&#34;position&#34;:1.0}],&#34;transform&#34;:{&#34;m00&#34;:90.0,&#34;m01&#34;:0.0,&#34;m02&#34;:0.0,&#34;m10&#34;:0.0,&#34;m11&#34;:60.0,&#34;m12&#34;:45.0},&#34;opacity&#34;:1.0,&#34;blendMode&#34;:&#34;NORMAL&#34;,&#34;visible&#34;:true}" mask="url(#path-3-inside-1_55_4)"/>
<defs>
<clipPath id="paint0_diamond_55_4_clip_path"><path d="M0 75V45H-45V75H0ZM90 75H135V45H90V75ZM0 75V105H90V75V45H0V75ZM90 75H45V105H90H135V75H90ZM0 105H45V75H0H-45V105H0Z" mask="url(#path-3-inside-1_55_4)"/></clipPath><linearGradient id="paint0_diamond_55_4" x1="0" y1="0" x2="500" y2="500" gradientUnits="userSpaceOnUse">
<stop offset="1" stop-color="#BD1E7B"/>
<stop offset="1" stop-opacity="0"/>
</linearGradient>
</defs>
</svg>
