<svg width="90" height="105" viewBox="0 0 90 105" fill="none" xmlns="http://www.w3.org/2000/svg">
<rect y="30" width="90" height="45" fill="#D33A93"/>
<mask id="path-2-inside-1_55_17" fill="white">
<path d="M0 75H90V105H0V75Z"/>
</mask>
<g clip-path="url(#paint0_diamond_55_17_clip_path)" data-figma-skip-parse="true" mask="url(#path-2-inside-1_55_17)"><g transform="matrix(0.045 0 0 0.03 45 75)"><rect x="0" y="0" width="1022.22" height="1033.33" fill="url(#paint0_diamond_55_17)" opacity="1" shape-rendering="crispEdges"/><rect x="0" y="0" width="1022.22" height="1033.33" transform="scale(1 -1)" fill="url(#paint0_diamond_55_17)" opacity="1" shape-rendering="crispEdges"/><rect x="0" y="0" width="1022.22" height="1033.33" transform="scale(-1 1)" fill="url(#paint0_diamond_55_17)" opacity="1" shape-rendering="crispEdges"/><rect x="0" y="0" width="1022.22" height="1033.33" transform="scale(-1)" fill="url(#paint0_diamond_55_17)" opacity="1" shape-rendering="crispEdges"/></g></g><path d="M0 75V45H-45V75H0ZM90 75H135V45H90V75ZM0 75V105H90V75V45H0V75ZM90 75H45V105H90H135V75H90ZM0 105H45V75H0H-45V105H0Z" data-figma-gradient-fill="{&#34;type&#34;:&#34;GRADIENT_DIAMOND&#34;,&#34;stops&#34;:[{&#34;color&#34;:{&#34;r&#34;:0.74117648601531982,&#34;g&#34;:0.11764705926179886,&#34;b&#34;:0.48235294222831726,&#34;a&#34;:1.0},&#34;position&#34;:0.99999988079071045},{&#34;color&#34;:{&#34;r&#34;:0.0,&#34;g&#34;:0.0,&#34;b&#34;:0.0,&#34;a&#34;:0.0},&#34;position&#34;:1.0}],&#34;stopsVar&#34;:[{&#34;color&#34;:{&#34;r&#34;:0.74117648601531982,&#34;g&#34;:0.11764705926179886,&#34;b&#34;:0.48235294222831726,&#34;a&#34;:1.0},&#34;position&#34;:0.99999988079071045},{&#34;color&#34;:{&#34;r&#34;:0.0,&#34;g&#34;:0.0,&#34;b&#34;:0.0,&#34;a&#34;:0.0},&#34;position&#34;:1.0}],&#34;transform&#34;:{&#34;m00&#34;:90.0,&#34;m01&#34;:0.0,&#34;m02&#34;:0.0,&#34;m10&#34;:0.0,&#34;m11&#34;:60.0,&#34;m12&#34;:45.0},&#34;opacity&#34;:1.0,&#34;blendMode&#34;:&#34;NORMAL&#34;,&#34;visible&#34;:true}" mask="url(#path-2-inside-1_55_17)"/>
<path d="M40.7598 34.6152H53.2695C54.3047 34.6152 55.1836 34.9863 55.9062 35.7285C56.6484 36.4512 57.0195 37.3301 57.0195 38.3652V55.8848C57.0195 56.9199 56.6484 57.7988 55.9062 58.5215C55.1836 59.2637 54.3047 59.6348 53.2695 59.6348H40.7598C39.7246 59.6348 38.8359 59.2637 38.0938 58.5215C37.3711 57.7988 37.0098 56.9199 37.0098 55.8848V38.3652C37.0098 37.3301 37.3711 36.4512 38.0938 35.7285C38.8359 34.9863 39.7246 34.6152 40.7598 34.6152ZM34.5195 39.8301V60.8652C34.5195 61.2168 34.6367 61.5195 34.8711 61.7734C35.125 62.0078 35.418 62.125 35.75 62.125H51.8047C51.5312 62.8672 51.0723 63.4727 50.4277 63.9414C49.7832 64.3906 49.0605 64.6152 48.2598 64.6152H35.75C34.7148 64.6152 33.8359 64.2539 33.1133 63.5312C32.3711 62.7891 32 61.9004 32 60.8652V43.375C32 42.5742 32.2344 41.8516 32.7031 41.207C33.1719 40.5625 33.7773 40.1035 34.5195 39.8301ZM53.2695 37.1348H40.7598C40.4082 37.1348 40.1152 37.252 39.8809 37.4863C39.627 37.7402 39.5 38.0332 39.5 38.3652V55.8848C39.5 56.2168 39.627 56.5098 39.8809 56.7637C40.1152 56.998 40.4082 57.1152 40.7598 57.1152H53.2695C53.6016 57.1152 53.8945 56.998 54.1484 56.7637C54.3828 56.5098 54.5 56.2168 54.5 55.8848V38.3652C54.5 38.0332 54.3828 37.7402 54.1484 37.4863C53.8945 37.252 53.6016 37.1348 53.2695 37.1348Z" fill="white"/>
<defs>
<clipPath id="paint0_diamond_55_17_clip_path"><path d="M0 75V45H-45V75H0ZM90 75H135V45H90V75ZM0 75V105H90V75V45H0V75ZM90 75H45V105H90H135V75H90ZM0 105H45V75H0H-45V105H0Z" mask="url(#path-2-inside-1_55_17)"/></clipPath><linearGradient id="paint0_diamond_55_17" x1="0" y1="0" x2="500" y2="500" gradientUnits="userSpaceOnUse">
<stop offset="1" stop-color="#BD1E7B"/>
<stop offset="1" stop-opacity="0"/>
</linearGradient>
</defs>
</svg>
