<svg width="90" height="105" viewBox="0 0 90 105" fill="none" xmlns="http://www.w3.org/2000/svg">
<rect y="30" width="90" height="45" fill="#D33A93"/>
<mask id="path-2-inside-1_55_16" fill="white">
<path d="M0 75H90V105H0V75Z"/>
</mask>
<g clip-path="url(#paint0_diamond_55_16_clip_path)" data-figma-skip-parse="true" mask="url(#path-2-inside-1_55_16)"><g transform="matrix(0.045 0 0 0.03 45 75)"><rect x="0" y="0" width="1022.22" height="1033.33" fill="url(#paint0_diamond_55_16)" opacity="1" shape-rendering="crispEdges"/><rect x="0" y="0" width="1022.22" height="1033.33" transform="scale(1 -1)" fill="url(#paint0_diamond_55_16)" opacity="1" shape-rendering="crispEdges"/><rect x="0" y="0" width="1022.22" height="1033.33" transform="scale(-1 1)" fill="url(#paint0_diamond_55_16)" opacity="1" shape-rendering="crispEdges"/><rect x="0" y="0" width="1022.22" height="1033.33" transform="scale(-1)" fill="url(#paint0_diamond_55_16)" opacity="1" shape-rendering="crispEdges"/></g></g><path d="M0 75V45H-45V75H0ZM90 75H135V45H90V75ZM0 75V105H90V75V45H0V75ZM90 75H45V105H90H135V75H90ZM0 105H45V75H0H-45V105H0Z" data-figma-gradient-fill="{&#34;type&#34;:&#34;GRADIENT_DIAMOND&#34;,&#34;stops&#34;:[{&#34;color&#34;:{&#34;r&#34;:0.74117648601531982,&#34;g&#34;:0.11764705926179886,&#34;b&#34;:0.48235294222831726,&#34;a&#34;:1.0},&#34;position&#34;:0.99999988079071045},{&#34;color&#34;:{&#34;r&#34;:0.0,&#34;g&#34;:0.0,&#34;b&#34;:0.0,&#34;a&#34;:0.0},&#34;position&#34;:1.0}],&#34;stopsVar&#34;:[{&#34;color&#34;:{&#34;r&#34;:0.74117648601531982,&#34;g&#34;:0.11764705926179886,&#34;b&#34;:0.48235294222831726,&#34;a&#34;:1.0},&#34;position&#34;:0.99999988079071045},{&#34;color&#34;:{&#34;r&#34;:0.0,&#34;g&#34;:0.0,&#34;b&#34;:0.0,&#34;a&#34;:0.0},&#34;position&#34;:1.0}],&#34;transform&#34;:{&#34;m00&#34;:90.0,&#34;m01&#34;:0.0,&#34;m02&#34;:0.0,&#34;m10&#34;:0.0,&#34;m11&#34;:60.0,&#34;m12&#34;:45.0},&#34;opacity&#34;:1.0,&#34;blendMode&#34;:&#34;NORMAL&#34;,&#34;visible&#34;:true}" mask="url(#path-2-inside-1_55_16)"/>
<path d="M30 47.5L45 40L60 47.5L45 55L30 47.5ZM45 62.8223L57.1875 56.7285L60 58.1348L45 65.6348L30 58.1348L32.8125 56.7285L45 62.8223ZM45 57.5195L57.1875 51.4258L60 52.832L45 60.332L30 52.832L32.8125 51.4258L45 57.5195ZM54.4043 47.5L45 42.7832L35.5957 47.5L45 52.2168L54.4043 47.5Z" fill="white"/>
<defs>
<clipPath id="paint0_diamond_55_16_clip_path"><path d="M0 75V45H-45V75H0ZM90 75H135V45H90V75ZM0 75V105H90V75V45H0V75ZM90 75H45V105H90H135V75H90ZM0 105H45V75H0H-45V105H0Z" mask="url(#path-2-inside-1_55_16)"/></clipPath><linearGradient id="paint0_diamond_55_16" x1="0" y1="0" x2="500" y2="500" gradientUnits="userSpaceOnUse">
<stop offset="1" stop-color="#BD1E7B"/>
<stop offset="1" stop-opacity="0"/>
</linearGradient>
</defs>
</svg>
