<svg width="90" height="105" viewBox="0 0 90 105" fill="none" xmlns="http://www.w3.org/2000/svg">
<rect y="30" width="90" height="45" fill="#D33A93"/>
<mask id="path-2-inside-1_55_24" fill="white">
<path d="M0 75H90V105H0V75Z"/>
</mask>
<g clip-path="url(#paint0_diamond_55_24_clip_path)" data-figma-skip-parse="true" mask="url(#path-2-inside-1_55_24)"><g transform="matrix(0.045 0 0 0.03 45 75)"><rect x="0" y="0" width="1022.22" height="1033.33" fill="url(#paint0_diamond_55_24)" opacity="1" shape-rendering="crispEdges"/><rect x="0" y="0" width="1022.22" height="1033.33" transform="scale(1 -1)" fill="url(#paint0_diamond_55_24)" opacity="1" shape-rendering="crispEdges"/><rect x="0" y="0" width="1022.22" height="1033.33" transform="scale(-1 1)" fill="url(#paint0_diamond_55_24)" opacity="1" shape-rendering="crispEdges"/><rect x="0" y="0" width="1022.22" height="1033.33" transform="scale(-1)" fill="url(#paint0_diamond_55_24)" opacity="1" shape-rendering="crispEdges"/></g></g><path d="M0 75V45H-45V75H0ZM90 75H135V45H90V75ZM0 75V105H90V75V45H0V75ZM90 75H45V105H90H135V75H90ZM0 105H45V75H0H-45V105H0Z" data-figma-gradient-fill="{&#34;type&#34;:&#34;GRADIENT_DIAMOND&#34;,&#34;stops&#34;:[{&#34;color&#34;:{&#34;r&#34;:0.74117648601531982,&#34;g&#34;:0.11764705926179886,&#34;b&#34;:0.48235294222831726,&#34;a&#34;:1.0},&#34;position&#34;:0.99999988079071045},{&#34;color&#34;:{&#34;r&#34;:0.0,&#34;g&#34;:0.0,&#34;b&#34;:0.0,&#34;a&#34;:0.0},&#34;position&#34;:1.0}],&#34;stopsVar&#34;:[{&#34;color&#34;:{&#34;r&#34;:0.74117648601531982,&#34;g&#34;:0.11764705926179886,&#34;b&#34;:0.48235294222831726,&#34;a&#34;:1.0},&#34;position&#34;:0.99999988079071045},{&#34;color&#34;:{&#34;r&#34;:0.0,&#34;g&#34;:0.0,&#34;b&#34;:0.0,&#34;a&#34;:0.0},&#34;position&#34;:1.0}],&#34;transform&#34;:{&#34;m00&#34;:90.0,&#34;m01&#34;:0.0,&#34;m02&#34;:0.0,&#34;m10&#34;:0.0,&#34;m11&#34;:60.0,&#34;m12&#34;:45.0},&#34;opacity&#34;:1.0,&#34;blendMode&#34;:&#34;NORMAL&#34;,&#34;visible&#34;:true}" mask="url(#path-2-inside-1_55_24)"/>
<path d="M45 38C46.0352 38 46.9141 38.3711 47.6367 39.1133C48.3789 39.8359 48.75 40.7148 48.75 41.75V42.3945C49.0625 42.5117 49.4336 42.668 49.8633 42.8633L50.3027 42.3945C51.0449 41.6719 51.9336 41.3105 52.9688 41.3105C53.9844 41.3105 54.8633 41.6719 55.6055 42.3945C56.3477 43.1367 56.7188 44.0254 56.7188 45.0605C56.7188 46.0957 56.3477 46.9746 55.6055 47.6973L55.166 48.166C55.3613 48.5957 55.5078 48.957 55.6055 49.25H56.25C57.2852 49.25 58.1641 49.6211 58.8867 50.3633C59.6289 51.0859 60 51.9648 60 53C60 54.0352 59.6387 54.9238 58.916 55.666C58.1738 56.3887 57.2852 56.75 56.25 56.75H55.6055C55.5078 57.0625 55.3613 57.4336 55.166 57.8633L55.6055 58.3027C56.3477 59.0449 56.7188 59.9336 56.7188 60.9688C56.7188 62.0039 56.3477 62.8828 55.6055 63.6055C54.8633 64.3477 53.9844 64.7188 52.9688 64.7188C51.9336 64.7188 51.0449 64.3477 50.3027 63.6055L49.8633 63.166C49.4336 63.3613 49.0625 63.5078 48.75 63.6055V64.25C48.75 65.2852 48.3887 66.1738 47.666 66.916C46.9238 67.6387 46.0352 68 45 68C43.9648 68 43.0859 67.6387 42.3633 66.916C41.6211 66.1738 41.25 65.2852 41.25 64.25V63.6055C40.9375 63.5078 40.5664 63.3613 40.1367 63.166L39.6973 63.6055C38.9551 64.3477 38.0762 64.7188 37.0605 64.7188C36.0254 64.7188 35.1367 64.3477 34.3945 63.6055C33.6719 62.8828 33.3105 62.0039 33.3105 60.9688C33.3105 59.9336 33.6719 59.0449 34.3945 58.3027L34.834 57.8633C34.6387 57.4336 34.4922 57.0625 34.3945 56.75H33.75C32.7148 56.75 31.8262 56.3887 31.084 55.666C30.3613 54.9238 30 54.0352 30 53C30 51.9648 30.3613 51.0859 31.084 50.3633C31.8262 49.6211 32.7148 49.25 33.75 49.25H34.3945C34.4922 48.957 34.6387 48.5957 34.834 48.166L34.3945 47.6973C33.6719 46.9746 33.3105 46.0957 33.3105 45.0605C33.3105 44.0254 33.6719 43.1367 34.3945 42.3945C35.1367 41.6719 36.0254 41.3105 37.0605 41.3105C38.0762 41.3105 38.9551 41.6719 39.6973 42.3945L40.1367 42.8633C40.5664 42.668 40.9375 42.5117 41.25 42.3945V41.75C41.25 40.7148 41.6113 39.8359 42.334 39.1133C43.0762 38.3711 43.9648 38 45 38ZM45 40.5195C44.6484 40.5195 44.3555 40.6367 44.1211 40.8711C43.8672 41.125 43.7402 41.418 43.7402 41.75V44.3574C42.2949 44.5527 40.9668 45.0996 39.7559 45.998L37.9395 44.1816C37.6855 43.9277 37.3926 43.8008 37.0605 43.8008C36.709 43.8008 36.416 43.918 36.1816 44.1523C35.9277 44.4062 35.8008 44.709 35.8008 45.0605C35.8008 45.4121 35.918 45.7051 36.1523 45.9395L37.998 47.7559C37.0996 48.9668 36.543 50.3047 36.3281 51.7695H33.75C33.3984 51.7695 33.1055 51.8867 32.8711 52.1211C32.6172 52.375 32.4902 52.668 32.4902 53C32.4902 53.3516 32.6172 53.6445 32.8711 53.8789C33.1055 54.1328 33.3984 54.2598 33.75 54.2598H36.3281C36.543 55.7246 37.0996 57.0527 37.998 58.2441L36.1523 60.0898C35.918 60.3242 35.8008 60.6172 35.8008 60.9688C35.8008 61.3203 35.9277 61.6133 36.1816 61.8477C36.416 62.1016 36.709 62.2285 37.0605 62.2285C37.3926 62.2285 37.6855 62.1016 37.9395 61.8477L39.7559 60.0312C40.9668 60.9102 42.2949 61.457 43.7402 61.6719V64.25C43.7402 64.6016 43.8672 64.8945 44.1211 65.1289C44.3555 65.3828 44.6484 65.5098 45 65.5098C45.3516 65.5098 45.6445 65.3828 45.8789 65.1289C46.1328 64.8945 46.2598 64.6016 46.2598 64.25V61.6719C47.7051 61.457 49.0332 60.9102 50.2441 60.0312L52.0605 61.8477C52.3145 62.1016 52.6172 62.2285 52.9688 62.2285C53.3008 62.2285 53.5938 62.1016 53.8477 61.8477C54.082 61.6133 54.1992 61.3203 54.1992 60.9688C54.1992 60.6172 54.082 60.3242 53.8477 60.0898L52.002 58.2441C52.9004 57.0527 53.457 55.7246 53.6719 54.2598H56.25C56.6016 54.2598 56.8945 54.1328 57.1289 53.8789C57.3828 53.6445 57.5098 53.3516 57.5098 53C57.5098 52.668 57.3828 52.375 57.1289 52.1211C56.8945 51.8867 56.6016 51.7695 56.25 51.7695H53.6719C53.457 50.3047 52.9004 48.9668 52.002 47.7559L53.8477 45.9395C54.082 45.6855 54.1992 45.3926 54.1992 45.0605C54.1992 44.709 54.082 44.4062 53.8477 44.1523C53.5938 43.918 53.3008 43.8008 52.9688 43.8008C52.6172 43.8008 52.3145 43.9277 52.0605 44.1816L50.2441 45.998C49.0332 45.0996 47.7051 44.5527 46.2598 44.3574V41.75C46.2598 41.418 46.1328 41.125 45.8789 40.8711C45.6445 40.6367 45.3516 40.5195 45 40.5195ZM45 48.0195C46.3867 48.0195 47.5684 48.5078 48.5449 49.4844C49.5215 50.4609 50.0098 51.6328 50.0098 53C50.0098 54.3867 49.5215 55.5684 48.5449 56.5449C47.5684 57.5215 46.3867 58.0098 45 58.0098C43.6133 58.0098 42.4316 57.5215 41.4551 56.5449C40.4785 55.5684 39.9902 54.3867 39.9902 53C39.9902 51.6328 40.4785 50.4609 41.4551 49.4844C42.4316 48.5078 43.6133 48.0195 45 48.0195ZM45 50.5098C44.3164 50.5098 43.7305 50.7539 43.2422 51.2422C42.7539 51.7305 42.5098 52.3164 42.5098 53C42.5098 53.7031 42.7539 54.2988 43.2422 54.7871C43.7305 55.2754 44.3164 55.5195 45 55.5195C45.6836 55.5195 46.2695 55.2754 46.7578 54.7871C47.2461 54.2988 47.4902 53.7031 47.4902 53C47.4902 52.3164 47.2461 51.7305 46.7578 51.2422C46.2695 50.7539 45.6836 50.5098 45 50.5098Z" fill="white"/>
<defs>
<clipPath id="paint0_diamond_55_24_clip_path"><path d="M0 75V45H-45V75H0ZM90 75H135V45H90V75ZM0 75V105H90V75V45H0V75ZM90 75H45V105H90H135V75H90ZM0 105H45V75H0H-45V105H0Z" mask="url(#path-2-inside-1_55_24)"/></clipPath><linearGradient id="paint0_diamond_55_24" x1="0" y1="0" x2="500" y2="500" gradientUnits="userSpaceOnUse">
<stop offset="1" stop-color="#BD1E7B"/>
<stop offset="1" stop-opacity="0"/>
</linearGradient>
</defs>
</svg>
