<svg width="90" height="105" viewBox="0 0 90 105" fill="none" xmlns="http://www.w3.org/2000/svg">
<rect y="30" width="90" height="45" fill="#D33A93"/>
<mask id="path-2-inside-1_55_46" fill="white">
<path d="M0 75H90V105H0V75Z"/>
</mask>
<g clip-path="url(#paint0_diamond_55_46_clip_path)" data-figma-skip-parse="true" mask="url(#path-2-inside-1_55_46)"><g transform="matrix(0.045 0 0 0.03 45 75)"><rect x="0" y="0" width="1022.22" height="1033.33" fill="url(#paint0_diamond_55_46)" opacity="1" shape-rendering="crispEdges"/><rect x="0" y="0" width="1022.22" height="1033.33" transform="scale(1 -1)" fill="url(#paint0_diamond_55_46)" opacity="1" shape-rendering="crispEdges"/><rect x="0" y="0" width="1022.22" height="1033.33" transform="scale(-1 1)" fill="url(#paint0_diamond_55_46)" opacity="1" shape-rendering="crispEdges"/><rect x="0" y="0" width="1022.22" height="1033.33" transform="scale(-1)" fill="url(#paint0_diamond_55_46)" opacity="1" shape-rendering="crispEdges"/></g></g><path d="M0 75V45H-45V75H0ZM90 75H135V45H90V75ZM0 75V105H90V75V45H0V75ZM90 75H45V105H90H135V75H90ZM0 105H45V75H0H-45V105H0Z" data-figma-gradient-fill="{&#34;type&#34;:&#34;GRADIENT_DIAMOND&#34;,&#34;stops&#34;:[{&#34;color&#34;:{&#34;r&#34;:0.74117648601531982,&#34;g&#34;:0.11764705926179886,&#34;b&#34;:0.48235294222831726,&#34;a&#34;:1.0},&#34;position&#34;:0.99999988079071045},{&#34;color&#34;:{&#34;r&#34;:0.0,&#34;g&#34;:0.0,&#34;b&#34;:0.0,&#34;a&#34;:0.0},&#34;position&#34;:1.0}],&#34;stopsVar&#34;:[{&#34;color&#34;:{&#34;r&#34;:0.74117648601531982,&#34;g&#34;:0.11764705926179886,&#34;b&#34;:0.48235294222831726,&#34;a&#34;:1.0},&#34;position&#34;:0.99999988079071045},{&#34;color&#34;:{&#34;r&#34;:0.0,&#34;g&#34;:0.0,&#34;b&#34;:0.0,&#34;a&#34;:0.0},&#34;position&#34;:1.0}],&#34;transform&#34;:{&#34;m00&#34;:90.0,&#34;m01&#34;:0.0,&#34;m02&#34;:0.0,&#34;m10&#34;:0.0,&#34;m11&#34;:60.0,&#34;m12&#34;:45.0},&#34;opacity&#34;:1.0,&#34;blendMode&#34;:&#34;NORMAL&#34;,&#34;visible&#34;:true}" mask="url(#path-2-inside-1_55_46)"/>
<path d="M52.2402 38C52.5918 38 52.8848 38.127 53.1191 38.3809L58.1289 43.3906C58.3633 43.625 58.4805 43.918 58.4805 44.2695C58.4805 44.6211 58.3633 44.9141 58.1289 45.1484L53.1191 50.1582C52.8848 50.3926 52.5918 50.5098 52.2402 50.5098C51.8887 50.5098 51.5957 50.3926 51.3613 50.1582C51.1074 49.9043 50.9805 49.6016 50.9805 49.25C50.9805 48.918 51.1074 48.625 51.3613 48.3711L54.2324 45.5H52.2402C51.0684 45.5 49.9648 45.7637 48.9297 46.291C47.9141 46.7988 47.0547 47.4922 46.3516 48.3711C45.2773 49.7383 44.7402 51.2812 44.7402 53C44.7402 54.7383 44.3203 56.3594 43.4805 57.8633C43.0508 58.6641 42.5137 59.377 41.8691 60.002C40.9512 60.959 39.877 61.7012 38.6465 62.2285C37.416 62.7559 36.1172 63.0195 34.75 63.0195H32.2305C31.8984 63.0195 31.6055 62.8926 31.3516 62.6387C31.1172 62.4043 31 62.1113 31 61.7598C31 61.4082 31.1172 61.1152 31.3516 60.8809C31.6055 60.627 31.8984 60.5 32.2305 60.5H34.75C35.9219 60.5 37.0156 60.2461 38.0312 59.7383C39.0664 59.2305 39.9355 58.5371 40.6387 57.6582C41.7129 56.291 42.25 54.7383 42.25 53C42.25 51.2617 42.6602 49.6504 43.4805 48.166C43.9297 47.3652 44.4668 46.6523 45.0918 46.0273C46.0293 45.0703 47.1133 44.3281 48.3438 43.8008C49.5742 43.2734 50.873 43.0098 52.2402 43.0098H54.2324L51.3613 40.1387C51.1074 39.8848 50.9805 39.5918 50.9805 39.2598C50.9805 38.9082 51.1074 38.6152 51.3613 38.3809C51.5957 38.127 51.8887 38 52.2402 38ZM52.2402 55.5195C52.5918 55.5195 52.8848 55.6367 53.1191 55.8711L58.1289 60.8809C58.3633 61.1152 58.4805 61.4082 58.4805 61.7598C58.4805 62.1113 58.3633 62.4043 58.1289 62.6387L53.1191 67.6484C52.8848 67.8828 52.5918 68 52.2402 68C51.8887 68 51.5957 67.8828 51.3613 67.6484C51.1074 67.4141 50.9805 67.1211 50.9805 66.7695C50.9805 66.4375 51.1074 66.1445 51.3613 65.8906L54.2324 63.0195H52.2402C50.873 63.0195 49.5742 62.7559 48.3438 62.2285C47.1133 61.7012 46.0293 60.959 45.0918 60.002C45.5996 59.2793 46.0195 58.498 46.3516 57.6582C47.0547 58.5371 47.9141 59.2305 48.9297 59.7383C49.9648 60.2461 51.0684 60.5 52.2402 60.5H54.2324L51.3613 57.6582C51.1074 57.4043 50.9805 57.1016 50.9805 56.75C50.9805 56.418 51.1074 56.125 51.3613 55.8711C51.5957 55.6367 51.8887 55.5195 52.2402 55.5195ZM32.2305 43.0098H34.75C36.1172 43.0098 37.416 43.2734 38.6465 43.8008C39.877 44.3281 40.9512 45.0703 41.8691 46.0273C41.3613 46.7695 40.9512 47.5508 40.6387 48.3711C39.9355 47.4922 39.0664 46.7988 38.0312 46.291C37.0156 45.7637 35.9219 45.5 34.75 45.5H32.2305C31.8984 45.5 31.6055 45.3828 31.3516 45.1484C31.1172 44.8945 31 44.6016 31 44.2695C31 43.918 31.1172 43.6152 31.3516 43.3613C31.6055 43.127 31.8984 43.0098 32.2305 43.0098Z" fill="white"/>
<defs>
<clipPath id="paint0_diamond_55_46_clip_path"><path d="M0 75V45H-45V75H0ZM90 75H135V45H90V75ZM0 75V105H90V75V45H0V75ZM90 75H45V105H90H135V75H90ZM0 105H45V75H0H-45V105H0Z" mask="url(#path-2-inside-1_55_46)"/></clipPath><linearGradient id="paint0_diamond_55_46" x1="0" y1="0" x2="500" y2="500" gradientUnits="userSpaceOnUse">
<stop offset="1" stop-color="#BD1E7B"/>
<stop offset="1" stop-opacity="0"/>
</linearGradient>
</defs>
</svg>
