<svg width="90" height="105" viewBox="0 0 90 105" fill="none" xmlns="http://www.w3.org/2000/svg">
<rect y="30" width="90" height="45" fill="#D33A93"/>
<mask id="path-2-inside-1_55_45" fill="white">
<path d="M0 75H90V105H0V75Z"/>
</mask>
<g clip-path="url(#paint0_diamond_55_45_clip_path)" data-figma-skip-parse="true" mask="url(#path-2-inside-1_55_45)"><g transform="matrix(0.045 0 0 0.03 45 75)"><rect x="0" y="0" width="1022.22" height="1033.33" fill="url(#paint0_diamond_55_45)" opacity="1" shape-rendering="crispEdges"/><rect x="0" y="0" width="1022.22" height="1033.33" transform="scale(1 -1)" fill="url(#paint0_diamond_55_45)" opacity="1" shape-rendering="crispEdges"/><rect x="0" y="0" width="1022.22" height="1033.33" transform="scale(-1 1)" fill="url(#paint0_diamond_55_45)" opacity="1" shape-rendering="crispEdges"/><rect x="0" y="0" width="1022.22" height="1033.33" transform="scale(-1)" fill="url(#paint0_diamond_55_45)" opacity="1" shape-rendering="crispEdges"/></g></g><path d="M0 75V45H-45V75H0ZM90 75H135V45H90V75ZM0 75V105H90V75V45H0V75ZM90 75H45V105H90H135V75H90ZM0 105H45V75H0H-45V105H0Z" data-figma-gradient-fill="{&#34;type&#34;:&#34;GRADIENT_DIAMOND&#34;,&#34;stops&#34;:[{&#34;color&#34;:{&#34;r&#34;:0.74117648601531982,&#34;g&#34;:0.11764705926179886,&#34;b&#34;:0.48235294222831726,&#34;a&#34;:1.0},&#34;position&#34;:0.99999988079071045},{&#34;color&#34;:{&#34;r&#34;:0.0,&#34;g&#34;:0.0,&#34;b&#34;:0.0,&#34;a&#34;:0.0},&#34;position&#34;:1.0}],&#34;stopsVar&#34;:[{&#34;color&#34;:{&#34;r&#34;:0.74117648601531982,&#34;g&#34;:0.11764705926179886,&#34;b&#34;:0.48235294222831726,&#34;a&#34;:1.0},&#34;position&#34;:0.99999988079071045},{&#34;color&#34;:{&#34;r&#34;:0.0,&#34;g&#34;:0.0,&#34;b&#34;:0.0,&#34;a&#34;:0.0},&#34;position&#34;:1.0}],&#34;transform&#34;:{&#34;m00&#34;:90.0,&#34;m01&#34;:0.0,&#34;m02&#34;:0.0,&#34;m10&#34;:0.0,&#34;m11&#34;:60.0,&#34;m12&#34;:45.0},&#34;opacity&#34;:1.0,&#34;blendMode&#34;:&#34;NORMAL&#34;,&#34;visible&#34;:true}" mask="url(#path-2-inside-1_55_45)"/>
<path d="M34.75 39H54.7305C55.7656 39 56.6543 39.3711 57.3965 40.1133C58.1191 40.8359 58.4805 41.7148 58.4805 42.75V62.7598C58.4805 63.7949 58.1191 64.6738 57.3965 65.3965C56.6543 66.1387 55.7656 66.5098 54.7305 66.5098H34.75C33.7148 66.5098 32.8262 66.1387 32.084 65.3965C31.3613 64.6738 31 63.7949 31 62.7598V42.75C31 41.7148 31.3613 40.8359 32.084 40.1133C32.8262 39.3711 33.7148 39 34.75 39ZM54.7305 41.4902H34.75C34.3984 41.4902 34.0957 41.6172 33.8418 41.8711C33.6074 42.1055 33.4902 42.3984 33.4902 42.75V62.7598C33.4902 63.0918 33.6074 63.3848 33.8418 63.6387C34.0957 63.873 34.3984 63.9902 34.75 63.9902H54.7305C55.082 63.9902 55.375 63.873 55.6094 63.6387C55.8633 63.3848 55.9902 63.0918 55.9902 62.7598V42.75C55.9902 42.3984 55.873 42.1055 55.6387 41.8711C55.3848 41.6172 55.082 41.4902 54.7305 41.4902ZM49.75 48.4043C50.082 48.4043 50.375 48.5312 50.6289 48.7852C50.8633 49.0195 50.9805 49.3125 50.9805 49.6641C50.9805 49.9961 50.8633 50.2891 50.6289 50.543L44.4473 56.7246C44.1934 56.959 43.9004 57.0762 43.5684 57.0762C43.2168 57.0762 42.9141 56.959 42.6602 56.7246L39.1445 53.1797C38.8906 52.9453 38.7637 52.6523 38.7637 52.3008C38.7637 51.9492 38.8906 51.6562 39.1445 51.4219C39.3789 51.168 39.6719 51.041 40.0234 51.041C40.3555 51.041 40.6484 51.168 40.9023 51.4219L43.5391 54.0879L48.8418 48.7852C49.0957 48.5312 49.3984 48.4043 49.75 48.4043Z" fill="white"/>
<defs>
<clipPath id="paint0_diamond_55_45_clip_path"><path d="M0 75V45H-45V75H0ZM90 75H135V45H90V75ZM0 75V105H90V75V45H0V75ZM90 75H45V105H90H135V75H90ZM0 105H45V75H0H-45V105H0Z" mask="url(#path-2-inside-1_55_45)"/></clipPath><linearGradient id="paint0_diamond_55_45" x1="0" y1="0" x2="500" y2="500" gradientUnits="userSpaceOnUse">
<stop offset="1" stop-color="#BD1E7B"/>
<stop offset="1" stop-opacity="0"/>
</linearGradient>
</defs>
</svg>
