<svg width="36" height="34" viewBox="0 0 36 34" fill="none" xmlns="http://www.w3.org/2000/svg">
<path d="M32.552 28.8633C31.5676 29.5898 30.4836 30.2344 29.3 30.7969C28.1164 31.3594 26.8918 31.8281 25.6262 32.2031C24.3606 32.5781 23.0774 32.8594 21.7766 33.0469C20.4758 33.2344 19.2043 33.3281 17.9621 33.3281C16.2278 33.3281 14.5461 33.1758 12.9172 32.8711C11.2883 32.5664 9.72386 32.1211 8.22386 31.5352C6.72386 30.9492 5.30003 30.2344 3.95237 29.3906C2.60472 28.5469 1.34495 27.5977 0.173077 26.543C-0.0144231 26.3789 -0.0495793 26.2148 0.0676082 26.0508C0.184796 25.8867 0.348858 25.875 0.559796 26.0156C1.82542 26.7422 3.16136 27.3984 4.56761 27.9844C5.97386 28.5703 7.43284 29.0684 8.94456 29.4785C10.4563 29.8887 12.0032 30.1992 13.5852 30.4102C15.1672 30.6211 16.7668 30.7266 18.384 30.7266C19.4621 30.7266 20.5696 30.668 21.7063 30.5508C22.843 30.4336 23.9914 30.2637 25.1516 30.041C26.3117 29.8184 27.4602 29.5312 28.5969 29.1797C29.7336 28.8281 30.8528 28.418 31.9543 27.9492C32.2825 27.8086 32.5461 27.8672 32.7453 28.125C32.9446 28.3828 32.8801 28.6289 32.552 28.8633ZM34.1692 27C33.9114 26.6719 33.2375 26.543 32.1477 26.6133C31.0578 26.6836 30.1965 26.7656 29.5637 26.8594C29.3762 26.8828 29.2707 26.8301 29.2473 26.7012C29.2239 26.5723 29.2942 26.4375 29.4582 26.2969C30.6067 25.5234 31.9075 25.166 33.3606 25.2246C34.8137 25.2832 35.6457 25.4414 35.8567 25.6992C36.0676 25.9805 36.0149 26.8359 35.6985 28.2656C35.3821 29.6953 34.6965 30.8438 33.6418 31.7109C33.4778 31.8516 33.3371 31.8926 33.22 31.834C33.1028 31.7754 33.0793 31.6641 33.1496 31.5C33.384 30.8906 33.677 30.0703 34.0285 29.0391C34.3801 28.0078 34.427 27.3281 34.1692 27ZM24.8528 24.3984H24.8879C25.3098 24 25.8547 23.5137 26.5227 22.9395C27.1907 22.3652 27.7473 21.8906 28.1926 21.5156C28.3801 21.375 28.4621 21.1992 28.4387 20.9883C28.4153 20.7773 28.345 20.5664 28.2278 20.3555C27.8293 19.8164 27.4543 19.2656 27.1028 18.7031C26.7512 18.1406 26.5754 17.3555 26.5754 16.3477V9.59766C26.5754 8.16797 26.5227 6.81445 26.4172 5.53711C26.3117 4.25977 25.7317 3.12891 24.677 2.14453C23.8332 1.34766 22.7961 0.791016 21.5657 0.474609C20.3352 0.158203 19.1926 0 18.1379 0C17.1067 0 16.0696 0.105469 15.0266 0.316406C13.9836 0.527344 13.0168 0.890625 12.1262 1.40625C11.2356 1.92188 10.4621 2.60156 9.80589 3.44531C9.14964 4.28906 8.70433 5.35547 8.46995 6.64453C8.42308 6.90234 8.47581 7.10742 8.62815 7.25977C8.7805 7.41211 8.9387 7.5 9.10276 7.52344L13.3215 7.98047C13.509 7.98047 13.6672 7.89844 13.7961 7.73438C13.925 7.57031 14.0129 7.39453 14.0598 7.20703C14.2473 6.31641 14.6692 5.66016 15.3254 5.23828C15.9817 4.81641 16.72 4.60547 17.5403 4.60547C17.9856 4.60547 18.4367 4.6875 18.8938 4.85156C19.3508 5.01562 19.7082 5.30859 19.966 5.73047C20.2707 6.17578 20.4348 6.67969 20.4582 7.24219C20.4817 7.80469 20.4934 8.34375 20.4934 8.85938V9.42188C19.2512 9.5625 17.8801 9.7207 16.3801 9.89648C14.8801 10.0723 13.5442 10.418 12.3723 10.9336C11.0129 11.5195 9.89964 12.4043 9.03245 13.5879C8.16526 14.7715 7.73167 16.2422 7.73167 18C7.73167 20.25 8.35862 21.9375 9.61253 23.0625C10.8664 24.1875 12.4075 24.75 14.2356 24.75C15.759 24.75 17.0305 24.5273 18.05 24.082C19.0696 23.6367 20.177 22.8047 21.3723 21.5859C21.7473 22.1484 22.0696 22.623 22.3391 23.0098C22.6086 23.3965 23.1067 23.8828 23.8332 24.4688C23.9973 24.5625 24.1731 24.6035 24.3606 24.5918C24.5481 24.5801 24.7121 24.5156 24.8528 24.3984ZM20.4934 13.8164C20.4934 14.6602 20.4641 15.4512 20.4055 16.1895C20.3469 16.9277 20.1067 17.6719 19.6848 18.4219C19.3567 19.0312 18.9289 19.5117 18.4016 19.8633C17.8742 20.2148 17.3059 20.3906 16.6965 20.3906C15.8762 20.3906 15.2317 20.0977 14.7629 19.5117C14.2942 18.9258 14.0598 18.1758 14.0598 17.2617C14.0598 15.4102 14.7453 14.2207 16.1164 13.6934C17.4875 13.166 18.9465 12.9023 20.4934 12.9023V13.8164Z" fill="#EC7834"/>
</svg>
