<svg width="46" height="19" viewBox="0 0 46 19" fill="none" xmlns="http://www.w3.org/2000/svg">
<path d="M9.89209 11.0962V11.2926C9.85367 11.4522 9.80478 11.6092 9.74573 11.7625C9.683 11.9291 9.58682 12.1091 9.46136 12.2932C9.24077 12.6048 8.878 12.9051 8.38559 13.1838C7.89423 13.4635 7.17077 13.6311 6.233 13.6825L6.2445 13.8789L6.11695 13.6825H5.96327C4.97845 13.6825 4.19645 13.4254 3.64027 12.9184C3.06945 12.3981 2.67427 11.8181 2.46414 11.1918C2.38493 10.971 2.32341 10.7444 2.28014 10.5141C2.25229 10.3707 2.23379 10.2258 2.22473 10.0801L12.1053 10.1007V9.7819L12.1304 9.66055V9.14533C12.0604 7.85576 11.5481 6.66182 10.6093 5.59642C9.66 4.52177 8.1305 3.97571 6.06573 3.97571C4.50382 3.97571 3.09036 4.50121 1.863 5.53678C0.627273 6.57955 0 7.94008 0 9.58034C9.3809e-05 9.85096 0.0179034 10.1213 0.0533182 10.3897C0.193409 11.5836 0.728682 12.687 1.64136 13.6681C2.56345 14.6615 4.11282 15.1654 6.24554 15.1654C7.69141 15.1654 8.93132 14.8847 9.92973 14.3335C10.9449 13.772 11.6746 12.7755 12.098 11.3728L12.1743 11.1198H10.0865L9.89209 11.0962ZM7.03277 5.7188C7.7705 5.83749 8.4629 6.14697 9.039 6.61554C9.62654 7.08551 9.913 7.70561 9.913 8.51083V8.57664L2.27909 8.59618C2.50282 7.8249 2.80495 7.23462 3.17609 6.8387C3.588 6.39855 4.01559 6.09415 4.44841 5.92859C4.75129 5.80711 5.0696 5.72684 5.39454 5.69C5.71027 5.6571 5.99464 5.64064 6.2445 5.64064C6.50921 5.64151 6.77321 5.66769 7.03277 5.7188Z" fill="#EC7834"/>
<path d="M18.4712 4.11657C18.4111 4.11788 18.3512 4.12477 18.2924 4.13714H18.1126C17.8491 4.13714 17.5365 4.16182 17.1758 4.20913C16.7952 4.26289 16.4201 4.34996 16.0551 4.46931C15.6518 4.59289 15.2641 4.76162 14.8999 4.97218C14.6803 5.09867 14.4775 5.24573 14.2914 5.41335V0H12.073V11.3357C12.073 11.6432 12.0646 12.0422 12.0479 12.5297C12.0104 13.2837 11.9508 14.0364 11.8691 14.787L11.8472 15.0029H13.9966L14.0552 14.9104L14.0959 14.826L14.1033 14.7983C14.1858 14.5093 14.2392 14.2316 14.2601 13.9704C14.5988 14.3355 15.0808 14.6337 15.6976 14.8589C16.5454 15.1685 17.4947 15.3258 18.5841 15.3258H18.7764C20.3718 15.3258 21.6535 14.7088 22.5861 13.4912C23.4967 12.3191 23.9839 10.8817 23.9703 9.40652C23.8657 7.67783 23.2646 6.34711 22.1836 5.45346C21.151 4.5812 19.8322 4.10629 18.4712 4.11657ZM21.7539 9.41886C21.7539 10.7208 21.4925 11.8037 20.9761 12.6366C20.4732 13.4491 19.6703 13.8429 18.5213 13.8429C17.0838 13.8429 15.9746 13.4336 15.224 12.6264C14.4681 11.8129 14.0855 10.7887 14.0855 9.58031C14.0855 8.44396 14.4744 7.49272 15.2418 6.75435C16.0112 6.01495 16.9762 5.64062 18.1115 5.64062C19.1141 5.64062 19.8742 5.86789 20.3718 6.31523C20.8841 6.77594 21.25 7.28705 21.4601 7.83722C21.573 8.11694 21.6514 8.40077 21.6912 8.68049C21.733 8.96535 21.7539 9.20393 21.7539 9.41886Z" fill="#EC7834"/>
<path d="M34.2385 14.4909C34.1549 14.0199 34.1089 13.3823 34.1005 12.5956C34.0921 11.7945 34.088 10.2119 34.088 7.84454C34.088 6.41613 33.6144 5.42581 32.6808 4.89928C31.7838 4.39332 30.6986 4.13623 29.4566 4.13623H29.214C29.1241 4.13623 29.0384 4.14446 28.9882 4.1568C27.8225 4.19793 26.7363 4.44886 25.7599 4.90237C24.7322 5.37953 24.2105 6.14464 24.2105 7.17816V7.37355L26.429 7.39823V7.19975C26.429 6.72156 26.6757 6.35443 27.1827 6.07985C27.7222 5.78882 28.4875 5.64074 29.4555 5.64074C30.6756 5.64074 31.4189 5.93588 31.6656 6.51794C31.9124 7.10308 32.0483 7.74685 32.0692 8.43585C29.3479 8.44511 27.2862 8.6477 25.9407 9.03848C24.4928 9.45908 23.7035 10.4381 23.5947 11.9611C23.5947 12.8085 23.9826 13.5911 24.7479 14.2852C25.5079 14.9763 26.6872 15.3259 28.2512 15.3259C28.4979 15.3259 28.776 15.3054 29.0855 15.2632C29.3918 15.2211 29.7033 15.1593 30.0128 15.0781C30.4894 14.9666 30.9492 14.7941 31.3802 14.565C31.6604 14.4158 31.9061 14.24 32.1141 14.0395C32.1497 14.3449 32.1946 14.5896 32.2511 14.7645L32.2762 14.8992L32.4058 15.001H34.09L34.3629 14.9095L34.2479 14.6369C34.2428 14.5884 34.2396 14.5397 34.2385 14.4909ZM28.6819 13.8142C28.6108 13.8214 28.5355 13.8235 28.4571 13.8235C27.7619 13.8235 27.1325 13.6631 26.5868 13.3463C26.0662 13.045 25.8142 12.5925 25.8142 11.9621C25.8142 11.015 26.384 10.4576 27.556 10.2592C28.8126 10.0463 30.2187 9.93933 31.7346 9.93933L32.0943 9.93728C32.114 10.1121 32.1245 10.2879 32.1256 10.4638C32.1089 11.1703 31.9782 11.7513 31.7388 12.1925C31.5129 12.6165 31.1757 12.9733 30.7624 13.226C30.1319 13.5949 29.4153 13.7975 28.6819 13.8142Z" fill="#EC7834"/>
<path d="M43.7313 4.43958L39.6248 12.4804L35.3185 4.43958H32.8408L38.4047 14.6493L36.2835 18.8183H38.5469L46 4.43958H43.7313Z" fill="#EC7834"/>
</svg>
